<svg xmlns="http://www.w3.org/2000/svg" width="100" height="100" viewBox="0 0 100 100" fill="none">
    <g clip-path="url(#clip0_93_263)">
        <path d="M34.3102 44.3489H65.6899C67.3081 44.3489 68.6196 43.0374 68.6196 41.4192C68.6196 31.1355 60.2837 22.7997 50 22.7997C39.7171 22.7997 31.3805 31.1355 31.3805 41.4192C31.3805 43.0374 32.692 44.3489 34.3102 44.3489Z" fill="url(#paint0_linear_93_263)"/>
        <path d="M49.9999 22.7996C56.2858 22.7996 61.3998 17.6857 61.3998 11.3998C61.3998 5.11397 56.2858 0 49.9999 0C43.7141 0 38.6001 5.11397 38.6001 11.3998C38.6001 17.6857 43.7141 22.7996 49.9999 22.7996Z" fill="url(#paint1_linear_93_263)"/>
        <path d="M99.8291 45.871C99.6727 45.4285 99.3965 45.0378 99.0608 44.709C94.8845 40.6128 88.3408 40.9065 84.3895 44.8578L61.4853 67.7619C60.936 68.3113 60.1913 68.6202 59.4139 68.6202H43.8065C42.2295 68.6202 40.8714 67.4079 40.7974 65.8317C40.7181 64.1494 42.0586 62.7609 43.7241 62.7609H56.987C57.7637 62.7609 58.5091 62.4519 59.0591 61.9026L67.0853 53.8765C68.4387 52.5223 67.4797 50.2083 65.5663 50.2083H37.6724C32.6988 50.2083 28.0228 52.1454 24.5064 55.6625L19.6259 60.5423L40.255 81.1721H65.6899C66.4673 81.1721 67.2119 80.8631 67.7612 80.3138L99.1417 48.9334C99.9237 48.1521 100.218 46.9703 99.8291 45.871Z" fill="url(#paint2_linear_93_263)"/>
        <path d="M14.4157 63.6184C13.2713 62.4747 11.4159 62.4747 10.2722 63.6184L0.858307 73.0322C-0.286102 74.1767 -0.286102 76.0314 0.858307 77.1758L22.8241 99.1415C23.9685 100.286 25.8232 100.287 26.9676 99.1415L36.3815 89.7276C37.5259 88.584 37.5259 86.7285 36.3815 85.5849L14.4157 63.6184Z" fill="url(#paint3_linear_93_263)"/>
    </g>
    <defs>
        <linearGradient id="paint0_linear_93_263" x1="50" y1="22.7997" x2="50" y2="44.3489" gradientUnits="userSpaceOnUse">
            <stop stop-color="#02AB8A"/>
            <stop offset="1" stop-color="#1A6BA3"/>
        </linearGradient>
        <linearGradient id="paint1_linear_93_263" x1="49.9999" y1="0" x2="49.9999" y2="22.7996" gradientUnits="userSpaceOnUse">
            <stop stop-color="#02AB8A"/>
            <stop offset="1" stop-color="#1A6BA3"/>
        </linearGradient>
        <linearGradient id="paint2_linear_93_263" x1="59.8129" y1="41.7633" x2="59.8129" y2="81.1721" gradientUnits="userSpaceOnUse">
            <stop stop-color="#02AB8A"/>
            <stop offset="1" stop-color="#1A6BA3"/>
        </linearGradient>
        <linearGradient id="paint3_linear_93_263" x1="18.6199" y1="62.7606" x2="18.6199" y2="100" gradientUnits="userSpaceOnUse">
            <stop stop-color="#02AB8A"/>
            <stop offset="1" stop-color="#1A6BA3"/>
        </linearGradient>
        <clipPath id="clip0_93_263">
            <rect width="100" height="100" fill="white"/>
        </clipPath>
    </defs>
</svg>
