<svg xmlns="http://www.w3.org/2000/svg" width="100" height="100" viewBox="0 0 100 100" fill="none">
    <g clip-path="url(#clip0_93_268)">
        <path d="M0 48.8751C6.51777 46.0894 19.6785 42.1966 30.3572 49.9108V37.3573L0 30.9644V48.8751Z" fill="url(#paint0_linear_93_268)"/>
        <path d="M33.9285 99.7858L39.857 98.5358C38.1818 95.6532 36.1935 92.9643 33.9285 90.518V99.7858Z" fill="url(#paint1_linear_93_268)"/>
        <path d="M72.125 31.8036C70.875 34.6428 69.4107 37.6251 67.8572 40.5536V40.8928C69.0357 43.4464 77.5179 60.0178 100 60.8751V37.3751L72.125 31.8036Z" fill="url(#paint2_linear_93_268)"/>
        <path d="M0 52.7858V67.1251C11.0023 70.2085 21.3088 75.3798 30.3572 82.3573V54.5716C20.2143 45.0358 6.42852 49.7323 0 52.7858Z" fill="url(#paint3_linear_93_268)"/>
        <path d="M40.4285 68.9643C38.6242 65.2469 36.4462 61.7229 33.9285 58.4465V85.5C37.748 89.0661 40.9892 93.2049 43.5357 97.7678L64.2857 93.3928V85.75C48.4285 84.1608 44.6964 77.1073 40.4285 68.9643Z" fill="url(#paint4_linear_93_268)"/>
        <path d="M0 93.3928L30.3572 99.7856V87.0356C19.7322 77.5178 6.28574 72.6965 0 70.8393V93.3928Z" fill="url(#paint5_linear_93_268)"/>
        <path d="M67.8572 86.0178V93.375L100 99.8036V78.8215C95.6607 81.6788 86.5357 86.1073 71.625 86.1073C70.4107 86.1073 69.1427 86.0715 67.8572 86.0178Z" fill="url(#paint6_linear_93_268)"/>
        <path d="M67.8572 47.7678V82.4106C87.5537 83.3928 97.6787 76.3034 100 74.3928V64.4286C89.8046 64.2674 80.0414 60.2844 72.6427 53.2678C70.8939 51.5743 69.2927 49.7342 67.8572 47.7678Z" fill="url(#paint7_linear_93_268)"/>
        <path d="M52.3393 11.9644C48.3944 11.9644 45.1965 15.1624 45.1965 19.1071C45.1965 23.0521 48.3946 26.2499 52.3393 26.2499C56.2842 26.2499 59.4821 23.0519 59.4821 19.1071C59.477 15.1646 56.2821 11.9696 52.3393 11.9644Z" fill="url(#paint8_linear_93_268)"/>
        <path d="M52.3393 0.196533C41.3215 0.196533 32.375 8.58931 32.375 18.893C32.375 26.893 45.0893 48.9108 51.8928 58.9108C52.0014 59.0463 52.1656 59.125 52.3393 59.125C52.5129 59.125 52.6771 59.0461 52.7857 58.9108C56.9941 52.612 60.8801 46.1036 64.4285 39.4108C64.4285 39.393 64.4463 39.3751 64.4463 39.3573C68.7678 31.1788 72.3035 23.0895 72.3035 18.893C72.3035 8.58931 63.3393 0.196533 52.3393 0.196533ZM52.3393 29.8215C46.4219 29.8215 41.625 25.0247 41.625 19.1073C41.625 13.1899 46.4219 8.39302 52.3393 8.39302C58.2566 8.39302 63.0535 13.1899 63.0535 19.1073C63.0488 25.0225 58.2547 29.8168 52.3393 29.8215Z" fill="url(#paint9_linear_93_268)"/>
        <path d="M52.3392 62.6965C50.9808 62.7034 49.7058 62.0426 48.9285 60.9288C43.8458 53.27 39.213 45.3221 35.0535 37.1252L33.9285 37.3575V53.054C37.8574 57.2866 41.1208 62.0915 43.607 67.304C47.6427 75.054 50.6427 80.7147 64.2855 82.1612V47.0536C60.7498 53.2143 57.3748 58.5 55.732 60.9286C54.965 62.0448 53.6935 62.7073 52.3392 62.6965Z" fill="url(#paint10_linear_93_268)"/>
    </g>
    <defs>
        <linearGradient id="paint0_linear_93_268" x1="15.1786" y1="30.9644" x2="15.1786" y2="49.9108" gradientUnits="userSpaceOnUse">
            <stop stop-color="#02AB8A"/>
            <stop offset="1" stop-color="#1A6BA3"/>
        </linearGradient>
        <linearGradient id="paint1_linear_93_268" x1="36.8927" y1="90.518" x2="36.8927" y2="99.7858" gradientUnits="userSpaceOnUse">
            <stop stop-color="#02AB8A"/>
            <stop offset="1" stop-color="#1A6BA3"/>
        </linearGradient>
        <linearGradient id="paint2_linear_93_268" x1="83.9286" y1="31.8036" x2="83.9286" y2="60.8751" gradientUnits="userSpaceOnUse">
            <stop stop-color="#02AB8A"/>
            <stop offset="1" stop-color="#1A6BA3"/>
        </linearGradient>
        <linearGradient id="paint3_linear_93_268" x1="15.1786" y1="48.8974" x2="15.1786" y2="82.3573" gradientUnits="userSpaceOnUse">
            <stop stop-color="#02AB8A"/>
            <stop offset="1" stop-color="#1A6BA3"/>
        </linearGradient>
        <linearGradient id="paint4_linear_93_268" x1="49.1071" y1="58.4465" x2="49.1071" y2="97.7678" gradientUnits="userSpaceOnUse">
            <stop stop-color="#02AB8A"/>
            <stop offset="1" stop-color="#1A6BA3"/>
        </linearGradient>
        <linearGradient id="paint5_linear_93_268" x1="15.1786" y1="70.8393" x2="15.1786" y2="99.7856" gradientUnits="userSpaceOnUse">
            <stop stop-color="#02AB8A"/>
            <stop offset="1" stop-color="#1A6BA3"/>
        </linearGradient>
        <linearGradient id="paint6_linear_93_268" x1="83.9286" y1="78.8215" x2="83.9286" y2="99.8036" gradientUnits="userSpaceOnUse">
            <stop stop-color="#02AB8A"/>
            <stop offset="1" stop-color="#1A6BA3"/>
        </linearGradient>
        <linearGradient id="paint7_linear_93_268" x1="83.9286" y1="47.7678" x2="83.9286" y2="82.5035" gradientUnits="userSpaceOnUse">
            <stop stop-color="#02AB8A"/>
            <stop offset="1" stop-color="#1A6BA3"/>
        </linearGradient>
        <linearGradient id="paint8_linear_93_268" x1="52.3393" y1="11.9644" x2="52.3393" y2="26.2499" gradientUnits="userSpaceOnUse">
            <stop stop-color="#02AB8A"/>
            <stop offset="1" stop-color="#1A6BA3"/>
        </linearGradient>
        <linearGradient id="paint9_linear_93_268" x1="52.3393" y1="0.196533" x2="52.3393" y2="59.125" gradientUnits="userSpaceOnUse">
            <stop stop-color="#02AB8A"/>
            <stop offset="1" stop-color="#1A6BA3"/>
        </linearGradient>
        <linearGradient id="paint10_linear_93_268" x1="49.107" y1="37.1252" x2="49.107" y2="82.1612" gradientUnits="userSpaceOnUse">
            <stop stop-color="#02AB8A"/>
            <stop offset="1" stop-color="#1A6BA3"/>
        </linearGradient>
        <clipPath id="clip0_93_268">
            <rect width="100" height="100" fill="white"/>
        </clipPath>
    </defs>
</svg>
