<svg xmlns="http://www.w3.org/2000/svg" width="100" height="100" fill="none"><g clip-path="url(#clip0_120_163)"><path d="M44.323 78.115c-3.899 3.602-9.29 4.41-14.073 2.107a12.822 12.822 0 01-4.33-3.36l-6.512 14.404a1.214 1.214 0 00.19 1.33c.156.182.594.584 1.286.392l4.741-1.32a6.04 6.04 0 017.064 3.194l2.141 4.43c.313.648.9.713 1.143.708.24-.003.829-.081 1.125-.736l10.358-22.911a7.772 7.772 0 00-3.133 1.762z" fill="url(#paint0_linear_120_163)"/><path d="M80.592 91.266L74.08 76.862a12.817 12.817 0 01-4.33 3.36c-4.783 2.302-10.174 1.495-14.073-2.107a7.77 7.77 0 00-3.134-1.762l10.358 22.91c.297.656.886.734 1.125.737.244.005.83-.06 1.143-.707l2.141-4.431a6.04 6.04 0 017.064-3.194l4.741 1.32c.693.192 1.13-.21 1.286-.391.156-.182.487-.676.191-1.331z" fill="url(#paint1_linear_120_163)"/><path d="M85.707 40.584c-5.408-3.703-7.086-11.056-3.82-16.739 1.963-3.416.941-6.791-.67-8.812-1.61-2.02-4.674-3.766-8.441-2.613-6.267 1.92-13.062-1.352-15.47-7.45C55.86 1.307 52.584 0 50 0s-5.86 1.306-7.307 4.97c-2.407 6.098-9.202 9.37-15.469 7.45-3.767-1.153-6.83.594-8.442 2.614-1.61 2.02-2.632 5.395-.669 8.812 3.266 5.683 1.588 13.035-3.82 16.738-3.251 2.227-3.795 5.711-3.22 8.23.574 2.519 2.576 5.422 6.471 6.017 6.48.99 11.182 6.886 10.705 13.423-.287 3.93 2.099 6.528 4.426 7.65 2.328 1.12 5.847 1.366 8.74-1.309 2.407-2.224 5.496-3.336 8.585-3.336 3.09 0 6.177 1.112 8.584 3.336 2.894 2.675 6.413 2.43 8.74 1.308 2.328-1.12 4.713-3.718 4.427-7.648-.477-6.538 4.225-12.434 10.704-13.424 3.896-.595 5.898-3.498 6.472-6.017.575-2.52.031-6.004-3.22-8.23zM50 65.61c-14.175 0-25.707-11.532-25.707-25.707S35.825 14.196 50 14.196s25.707 11.532 25.707 25.707S64.175 65.61 50 65.61z" fill="url(#paint2_linear_120_163)"/><path d="M50 18.99c-11.532 0-20.914 9.381-20.914 20.913S38.468 60.817 50 60.817c11.532 0 20.914-9.382 20.914-20.914 0-11.532-9.382-20.914-20.914-20.914zm10.718 18.885l-13.016 9.507a2.396 2.396 0 01-3.375-.558l-3.894-5.543a2.397 2.397 0 013.923-2.755l2.49 3.546 11.045-8.067a2.397 2.397 0 112.827 3.87z" fill="url(#paint3_linear_120_163)"/></g><defs><linearGradient id="paint0_linear_120_163" x1="33.372" y1="76.353" x2="33.372" y2="100" gradientUnits="userSpaceOnUse"><stop stop-color="#02AB8A"/><stop offset="1" stop-color="#1A6BA3"/></linearGradient><linearGradient id="paint1_linear_120_163" x1="66.627" y1="76.353" x2="66.627" y2="100" gradientUnits="userSpaceOnUse"><stop stop-color="#02AB8A"/><stop offset="1" stop-color="#1A6BA3"/></linearGradient><linearGradient id="paint2_linear_120_163" x1="50" y1="0" x2="50" y2="76.701" gradientUnits="userSpaceOnUse"><stop stop-color="#02AB8A"/><stop offset="1" stop-color="#1A6BA3"/></linearGradient><linearGradient id="paint3_linear_120_163" x1="50" y1="18.989" x2="50" y2="60.817" gradientUnits="userSpaceOnUse"><stop stop-color="#02AB8A"/><stop offset="1" stop-color="#1A6BA3"/></linearGradient><clipPath id="clip0_120_163"><path fill="#fff" d="M0 0h100v100H0z"/></clipPath></defs></svg>