<svg xmlns="http://www.w3.org/2000/svg" width="60" height="60" viewBox="0 0 60 60" fill="none">
    <g clip-path="url(#clip0_39_11)">
        <path d="M59.0625 34.4006V25.5994L56.6625 24.7022C55.9678 21.1763 54.6028 17.8819 52.5994 14.8922L53.6616 12.5616L47.4384 6.33844L45.1069 7.40063C42.1181 5.39719 38.8237 4.03219 35.2978 3.3375L34.3997 0.9375H25.5994L24.7013 3.3375C21.1753 4.03219 17.8809 5.39719 14.8922 7.40063L12.5606 6.33844L6.3375 12.5616L7.39969 14.8922C5.39719 17.8819 4.03219 21.1772 3.3375 24.7031L0.9375 25.5994V34.4006L3.3375 35.2978C3.42094 35.7178 3.51562 36.1406 3.62063 36.5625H1.66219L1.99031 37.7494C5.45437 50.2978 16.9725 59.0625 30 59.0625C43.0275 59.0625 54.5456 50.2978 58.0097 37.7494L58.3378 36.5625H56.3794C56.4844 36.1406 56.58 35.7178 56.6634 35.2978L59.0625 34.4006ZM19.2281 38.4375C19.4531 40.4222 19.7484 42.3066 20.1141 44.0625H6.74625C5.685 42.3141 4.80563 40.4344 4.15406 38.4375H19.2281ZM51.5625 36.5625H38.4375V27.1875H51.5625V36.5625ZM30 57.1875C27.045 57.1875 24.2381 52.7625 22.4794 45.9375H37.5197C35.7619 52.7625 32.955 57.1875 30 57.1875ZM22.0369 44.0625C21.6581 42.3084 21.3478 40.425 21.1153 38.4375H38.8856C38.6531 40.425 38.3428 42.3084 37.9641 44.0625H22.0369ZM38.4375 21.5625H29.0625V14.0784L38.4375 15.7828V21.5625ZM40.3125 23.4375V25.3125H36.5625V36.5625H27.1875V23.4375H40.3125ZM42.1875 25.3125V21.5625H40.3125V14.2181L29.2303 12.2034L27.1875 12.1875V21.5625H25.3125V25.3125H23.4375V17.8125H17.8125V25.3125H15.9375V16.2319C19.6322 12.4547 24.6666 10.3125 30 10.3125C39.1228 10.3125 46.9744 16.5591 49.1091 25.3125H42.1875ZM21.5625 25.3125H19.6875V19.6875H21.5625V25.3125ZM14.0625 17.8125V25.3125H12.1875V17.8125H14.0625ZM25.3125 27.1875V36.5625H8.4375V27.1875H25.3125ZM7.98844 45.9375H20.5425C21.7566 50.835 23.5116 54.6075 25.59 56.8228C18.4753 55.6472 12.1575 51.6731 7.98844 45.9375ZM34.41 56.8228C36.4884 54.6066 38.2425 50.835 39.4575 45.9375H52.0116C47.8425 51.6731 41.5247 55.6472 34.41 56.8228ZM53.2537 44.0625H39.8859C40.2516 42.3066 40.5469 40.4222 40.7719 38.4375H55.845C55.1944 40.4344 54.315 42.3141 53.2537 44.0625ZM53.4375 36.5625V25.3125H51.03C48.8531 15.4922 40.1437 8.4375 30 8.4375C23.6953 8.4375 17.7703 11.1694 13.6631 15.9375H10.3125V25.3125H6.5625V36.5625H5.56687C5.37656 35.8547 5.20875 35.1441 5.08406 34.4419L4.99125 33.9141L2.8125 33.0994V26.9006L4.99031 26.0859L5.08406 25.5581C5.72719 21.9262 7.12594 18.5503 9.24187 15.5212L9.54844 15.0825L8.58375 12.9656L12.9684 8.58281L15.0844 9.54656L15.5241 9.24C18.5513 7.12406 21.9281 5.72531 25.56 5.08219L26.0869 4.98844L26.8997 2.8125H33.0994L33.9141 4.99125L34.4409 5.085C38.0728 5.72812 41.4506 7.12688 44.4769 9.24281L44.9166 9.54937L47.0325 8.58563L51.4172 12.9684L50.4525 15.0853L50.7591 15.5241C52.875 18.5522 54.2738 21.9291 54.9169 25.5609L55.0106 26.0887L57.1875 26.9006V33.0994L55.0087 33.9141L54.9159 34.4419C54.7912 35.1441 54.6225 35.8547 54.4331 36.5625H53.4375Z" fill="white"/>
        <path d="M40.3125 29.0625H42.1875V30.9375H40.3125V29.0625Z" fill="white"/>
        <path d="M40.3125 32.8125H42.1875V34.6875H40.3125V32.8125Z" fill="white"/>
        <path d="M44.0625 32.8125H45.9375V34.6875H44.0625V32.8125Z" fill="white"/>
        <path d="M44.0625 29.0625H45.9375V30.9375H44.0625V29.0625Z" fill="white"/>
        <path d="M47.8125 32.8125H49.6875V34.6875H47.8125V32.8125Z" fill="white"/>
        <path d="M47.8125 29.0625H49.6875V30.9375H47.8125V29.0625Z" fill="white"/>
        <path d="M29.0625 32.8125H30.9375V34.6875H29.0625V32.8125Z" fill="white"/>
        <path d="M29.0625 29.0625H30.9375V30.9375H29.0625V29.0625Z" fill="white"/>
        <path d="M29.0625 25.3125H30.9375V27.1875H29.0625V25.3125Z" fill="white"/>
        <path d="M32.8125 29.0625H34.6875V30.9375H32.8125V29.0625Z" fill="white"/>
        <path d="M32.8125 32.8125H34.6875V34.6875H32.8125V32.8125Z" fill="white"/>
        <path d="M32.8125 25.3125H34.6875V27.1875H32.8125V25.3125Z" fill="white"/>
        <path d="M21.5625 29.0625H23.4375V30.9375H21.5625V29.0625Z" fill="white"/>
        <path d="M17.8125 29.0625H19.6875V30.9375H17.8125V29.0625Z" fill="white"/>
        <path d="M10.3125 29.0625H12.1875V30.9375H10.3125V29.0625Z" fill="white"/>
        <path d="M14.0625 29.0625H15.9375V30.9375H14.0625V29.0625Z" fill="white"/>
        <path d="M21.5625 32.8125H23.4375V34.6875H21.5625V32.8125Z" fill="white"/>
        <path d="M17.8125 32.8125H19.6875V34.6875H17.8125V32.8125Z" fill="white"/>
        <path d="M14.0625 32.8125H15.9375V34.6875H14.0625V32.8125Z" fill="white"/>
        <path d="M10.3125 32.8125H12.1875V34.6875H10.3125V32.8125Z" fill="white"/>
    </g>
    <defs>
        <clipPath id="clip0_39_11">
            <rect width="60" height="60" fill="white"/>
        </clipPath>
    </defs>
</svg>
