<svg xmlns="http://www.w3.org/2000/svg" width="100" height="100" fill="none"><g clip-path="url(#clip0_120_176)"><path d="M26.935 60.411l-.185-.08c-.282-.122-.555-.251-.832-.378-.301-.137-.605-.272-.898-.415-.274-.133-.537-.274-.804-.412-.286-.148-.573-.293-.853-.447-.263-.144-.515-.296-.771-.445-.27-.159-.544-.314-.807-.477-.188-.117-.37-.238-.555-.359v10.203c1.659 1.282 3.575 2.436 5.705 3.437V60.41z" fill="url(#paint0_linear_120_176)"/><path d="M39.544 74.672c1.848.26 3.753.43 5.706.492V64.24c-.153-.004-.308-.003-.459-.01-.242-.008-.48-.028-.72-.04-.482-.025-.964-.047-1.442-.084-.28-.022-.556-.055-.834-.08-.434-.04-.87-.077-1.302-.127-.296-.034-.585-.08-.878-.119l-.07-.009v10.902z" fill="url(#paint1_linear_120_176)"/><path d="M13.38 49.394v-10.63a42.714 42.714 0 01-1.545-.699c-.012-.005-.022-.012-.034-.018a39.046 39.046 0 01-1.71-.88c-.147-.079-.292-.16-.437-.241a35.032 35.032 0 01-1.469-.87c-.06-.037-.124-.073-.184-.111-.11-.07-.217-.144-.326-.215v10.26c1.602 1.238 3.444 2.357 5.487 3.333.071.023.144.037.213.07l.005.001z" fill="url(#paint2_linear_120_176)"/><path d="M72.85 51.501l.07-.075c.235-.253.473-.498.714-.736a18.921 18.921 0 011.23-1.12l.01-.009H72.3c-.317 0-.632.02-.947.053l-.166.02c-1.641.201-3.24.838-4.736 1.867h6.397z" fill="url(#paint3_linear_120_176)"/><path d="M53.568 71.914c.059-.892.147-1.771.257-2.637.009-.07.015-.142.025-.213.105-.786.236-1.559.381-2.32a38.251 38.251 0 01.528-2.356c.056-.223.099-.453.158-.674-.756.108-1.52.196-2.286.273-.209.02-.417.037-.627.056-.624.055-1.25.1-1.878.135-.231.013-.462.027-.695.036-.243.01-.486.022-.73.029v10.92a52.979 52.979 0 004.772-.368v-.014c0-.94.032-1.87.09-2.786l.005-.081z" fill="url(#paint4_linear_120_176)"/><path d="M17.777 54.806l-.062-.052a45.456 45.456 0 01-3.353-1.175v2.006c0 3.132 1.234 6.093 3.415 8.721v-9.5z" fill="url(#paint5_linear_120_176)"/><path d="M16.832 50.818a41.73 41.73 0 002.23.741l.038.012c1.126.335 2.272.627 3.437.88V41.586a51.686 51.686 0 01-1.743-.387c-.154-.036-.303-.076-.456-.115-.58-.146-1.152-.3-1.718-.462-.166-.048-.333-.095-.498-.144a45.206 45.206 0 01-1.29-.411v10.75z" fill="url(#paint6_linear_120_176)"/><path d="M30.387 72.456a44.791 44.791 0 005.705 1.609V63.202c-.225-.045-.444-.098-.667-.146-.375-.081-.752-.158-1.122-.246-.3-.072-.595-.153-.892-.23-.36-.092-.724-.182-1.08-.283-.3-.085-.592-.178-.887-.268-.346-.105-.693-.206-1.034-.318l-.022-.007v10.752h-.001z" fill="url(#paint7_linear_120_176)"/><path d="M35.147 53.553a52.74 52.74 0 005.705-.492V42.166c-.68.092-1.367.171-2.06.238-.113.01-.226.017-.34.028a56.27 56.27 0 01-2.02.142c-.21.011-.419.022-.63.03-.218.01-.436.022-.655.03v10.92z" fill="url(#paint8_linear_120_176)"/><path d="M25.99 53.061l.345.049a56.981 56.981 0 001.803.21c.341.034.684.062 1.027.088.243.02.485.041.73.056.369.025.74.04 1.112.058.213.01.425.023.64.029h.047V42.635c-.22-.006-.438-.019-.656-.028-.21-.009-.417-.02-.625-.031a55.025 55.025 0 01-2.029-.143c-.11-.01-.222-.017-.332-.028a55.731 55.731 0 01-2.063-.238v10.895z" fill="url(#paint9_linear_120_176)"/><path d="M62.619 42.696c2.18-2.63 3.415-5.59 3.415-8.722v-4.528c-.013.019-.03.036-.044.056-.322.43-.667.853-1.028 1.269-.087.1-.179.199-.269.298-.305.34-.623.674-.956 1.002-.091.09-.178.182-.27.27a27.48 27.48 0 01-.848.776v9.58z" fill="url(#paint10_linear_120_176)"/><path d="M59.166 35.73c-.108.07-.213.143-.323.212-.064.041-.132.08-.197.12a35.13 35.13 0 01-1.454.86 38.465 38.465 0 01-2.133 1.116l-.057.03c-.504.24-1.019.472-1.541.696v10.662c2.128-1 4.045-2.155 5.705-3.437v-10.26z" fill="url(#paint11_linear_120_176)"/><path d="M4.223 33.117c-.29-.255-.575-.514-.85-.777-.09-.087-.176-.177-.265-.264a25.53 25.53 0 01-.962-1.008c-.089-.099-.179-.197-.266-.296a21.946 21.946 0 01-1.029-1.27c-.013-.02-.03-.037-.044-.056v4.528c0 3.132 1.234 6.092 3.416 8.722v-9.578z" fill="url(#paint12_linear_120_176)"/><path d="M50.009 50.846V40.068c-.424.141-.85.278-1.284.41-.17.05-.341.098-.512.147-.56.162-1.125.314-1.7.458-.156.04-.311.08-.47.118-.573.137-1.152.266-1.74.386v10.868a44.837 44.837 0 005.706-1.61z" fill="url(#paint13_linear_120_176)"/><path d="M83.425 49.578c-.135.006-.27.007-.403.018-.112.01-.22.028-.33.04-.151.019-.302.033-.45.058-.091.015-.182.039-.273.058-.166.033-.331.063-.496.105-.074.018-.145.043-.218.063-.18.05-.362.1-.54.159-.05.018-.102.04-.153.058a9.71 9.71 0 00-.591.225l-.049.022c-.228.099-.456.204-.68.32l-.006.002c-5.284 2.713-9.352 9.988-10.48 19-.017.142-.03.287-.046.43a40.94 40.94 0 00-.187 2.07c-.052.847-.08 1.707-.08 2.575a41.645 41.645 0 00.485 6.295c.818 5.193 2.62 9.742 5.06 13.078.018.026.036.054.056.079.098.134.2.26.302.39.093.12.184.243.278.36.34.417.691.806 1.052 1.176.059.06.116.124.175.184.126.127.257.245.387.366.086.08.17.165.257.242.19.17.384.331.58.488.028.022.054.047.083.07.097.076.197.146.295.219a12.114 12.114 0 002.527 1.477c.048.02.097.035.145.055.691.28 1.4.489 2.123.61.044.006.09.009.134.016.214.033.428.064.645.08l.06.003c.242.02.486.03.73.03 8.48 0 15.377-11.314 15.377-25.22 0-13.904-6.897-25.217-15.375-25.217-.132 0-.262.01-.394.016zm2.29 18.694c.541-.349 1.21-.525 1.985-.525 1.362 0 2.495.511 3.367 1.52.76.88 1.279 2.09 1.547 3.6h3.092v3.945H92.8c-.047.68-.129 1.327-.254 1.993-.16.805-.317 1.451-.443 1.907l-.17.615-3.15-.933.237-.744c.137-.43.284-1.022.436-1.76.151-.726.228-1.598.228-2.591 0-1.088-.158-1.905-.47-2.424-.288-.48-.662-.704-1.178-.704-.276 0-.521.07-.725.206-.183.124-.364.337-.539.636-.17.293-.331.663-.521 1.2-.093.26-.177.531-.266.818-.087.274-.176.562-.28.867-.243.806-.528 1.567-.802 2.304a8.87 8.87 0 01-1.067 2.047c-.484.674-.978 1.148-1.557 1.497-.58.37-1.298.552-2.186.552-1.36 0-2.452-.497-3.337-1.52-.744-.898-1.234-2.173-1.498-3.892h-3.325V72.94h3.23c.054-1.245.188-2.238.403-3.018.241-.907.468-1.622.674-2.117l.226-.545 3.026 1.216-.28.714c-.209.536-.412 1.208-.641 2.116-.164.656-.25 1.655-.25 2.889 0 1.747.267 2.535.49 2.888.316.459.678.68 1.127.68.353 0 .65-.096.909-.295.268-.237.518-.549.713-.9.185-.361.437-.877.655-1.476.207-.57.383-1.177.56-1.819.15-.512.316-.988.485-1.478l.14-.41c.313-.757.619-1.332.95-1.805a4.84 4.84 0 011.365-1.308z" fill="url(#paint14_linear_120_176)"/><path d="M33.421 57.03c-.968 0-1.925-.032-2.875-.08-.196-.01-.393-.017-.588-.03a56.308 56.308 0 01-2.482-.21c-.156-.016-.314-.021-.47-.039.107.05.216.097.322.147a37.59 37.59 0 002.108.89c.59.23 1.191.448 1.805.653.09.031.18.065.271.096.704.23 1.424.441 2.155.64.196.053.396.101.594.152.558.144 1.124.279 1.696.403.224.049.446.098.671.144.701.143 1.41.273 2.127.386.063.01.126.024.19.033.777.12 1.567.218 2.361.303.227.025.455.044.684.065.6.057 1.203.102 1.812.139.238.014.476.03.714.04.815.037 1.634.062 2.459.062.82 0 1.639-.02 2.454-.06.268-.011.533-.035.8-.05.546-.033 1.09-.068 1.633-.118.317-.03.631-.069.947-.104a50.28 50.28 0 001.456-.175c.337-.047.67-.102 1.005-.156.292-.047.58-.097.871-.149 2.23-5.685 5.668-9.914 9.663-12.137l.055-.031c.252-.139.506-.271.763-.395.103-.05.208-.095.313-.142.215-.097.43-.196.647-.28.317-.126.635-.239.958-.337.123-.039.25-.069.375-.103a11.486 11.486 0 011.136-.261c.256-.048.516-.086.777-.117.115-.014.231-.03.347-.04a12.4 12.4 0 011.128-.056h6.234c.7-1.603 1.054-3.245 1.054-4.896 0-5.37-3.646-10.423-10.102-14.133v6.89C69.486 46.687 53.307 57.03 33.42 57.03z" fill="url(#paint15_linear_120_176)"/><path d="M.835 20.26c.006.117.005.237.015.354.016.193.048.383.072.575.02.14.03.28.054.42.045.265.105.526.167.788.015.063.025.128.04.192.074.287.161.572.256.855.012.036.02.073.033.11.091.267.197.53.306.794.02.05.037.103.06.153.082.194.179.385.272.576.057.118.107.237.168.354.06.114.129.227.191.34.106.191.208.382.322.57.123.201.26.4.392.597.066.097.124.197.192.292.108.151.225.298.337.446.107.141.207.284.319.423.015.02.034.039.05.06C8.795 33.977 18.16 38.19 29.248 39.045c.55.043 1.104.077 1.663.102.83.038 1.665.064 2.513.064 15.735 0 28.903-6.733 31.95-15.66.012-.036.02-.073.032-.11.094-.283.182-.567.255-.855.01-.037.015-.075.025-.112a12.1 12.1 0 00.183-.867c.009-.05.012-.1.02-.15a12.5 12.5 0 00.107-.845c.01-.117.009-.236.015-.354.013-.218.028-.434.028-.653C66.034 8.796 51.404 0 33.42 0S.807 8.796.807 19.607c0 .219.015.435.028.653zm36.014 3.053a4.338 4.338 0 00-1.15-.891 16.704 16.704 0 00-1.88-.816 31.273 31.273 0 00-2.32-.7c-.65-.187-1.259-.393-1.883-.603l-.52-.176c-.967-.39-1.7-.77-2.303-1.184a6.057 6.057 0 01-1.666-1.7c-.444-.676-.669-1.509-.669-2.477 0-1.698.652-3.111 1.94-4.2 1.12-.947 2.66-1.594 4.584-1.93V4.78h5.03v3.626c.868.058 1.693.161 2.54.318a34.19 34.19 0 012.431.552l.784.21-1.19 3.93-.947-.295c-.55-.17-1.303-.353-2.243-.544-.926-.187-2.037-.283-3.303-.283-1.387 0-2.427.198-3.09.586-.612.359-.896.826-.896 1.47 0 .344.087.649.262.904.157.228.43.454.811.673.373.211.845.412 1.529.65.333.117.678.221 1.043.332.35.107.717.22 1.104.35 1.03.303 2 .657 2.936 1 .972.355 1.851.803 2.609 1.33.86.604 1.465 1.221 1.908 1.942.471.723.705 1.62.705 2.727 0 1.696-.635 3.058-1.939 4.162-1.144.929-2.769 1.54-4.96 1.868v4.148h-5.03v-4.03c-1.586-.069-2.852-.235-3.846-.504-1.156-.3-2.068-.584-2.699-.84l-.694-.283 1.549-3.774.911.347c.684.261 1.54.516 2.697.8.835.204 2.11.313 3.68.313 2.229 0 3.232-.333 3.682-.613.584-.392.868-.843.868-1.404a1.763 1.763 0 00-.375-1.134z" fill="url(#paint16_linear_120_176)"/><path d="M66.651 86.524c-.04-.132-.08-.262-.117-.394a38.16 38.16 0 01-.42-1.599l-.06-.27c-.044-.19-.086-.381-.127-.572h-8.008c.3 1.3.665 2.547 1.087 3.736h7.922a41.731 41.731 0 01-.277-.901z" fill="url(#paint17_linear_120_176)"/><path d="M73.634 98.87a20.355 20.355 0 01-.713-.737l-.073-.075h-6.457c1.82 1.248 3.816 1.94 5.91 1.94h2.572l-.008-.008a19.58 19.58 0 01-.966-.861c-.089-.084-.176-.172-.265-.26z" fill="url(#paint18_linear_120_176)"/><path d="M59.03 62.134a33.888 33.888 0 00-1.088 3.736h7.986c.041-.19.083-.38.128-.57.02-.09.038-.181.06-.27.129-.542.27-1.074.42-1.6.037-.132.077-.262.117-.393.089-.303.18-.605.277-.902h-7.9z" fill="url(#paint19_linear_120_176)"/><path d="M60.523 58.687h7.725c.03-.068.063-.133.094-.2l.18-.386c.172-.364.35-.72.531-1.071.055-.106.108-.214.164-.318.235-.438.477-.867.728-1.283.046-.078.095-.152.143-.23.051-.084.104-.166.156-.25h-7.368a23.253 23.253 0 00-2.353 3.738z" fill="url(#paint20_linear_120_176)"/><path d="M70.242 94.61c-.052-.083-.104-.165-.155-.25-.048-.076-.097-.15-.143-.229a28.304 28.304 0 01-.728-1.283c-.056-.105-.108-.212-.164-.318a33.13 33.13 0 01-.71-1.457c-.031-.067-.064-.133-.094-.2h-7.774a23.234 23.234 0 002.344 3.737h7.424z" fill="url(#paint21_linear_120_176)"/><path d="M57.066 71.418a41.14 41.14 0 00-.1 1.637h8.063c0-.029.003-.058.004-.086l.026-.515a41.3 41.3 0 01.095-1.377l.037-.446c.042-.44.092-.878.147-1.313h-8.035a41.775 41.775 0 00-.237 2.1z" fill="url(#paint22_linear_120_176)"/><path d="M65.338 80.24a43.977 43.977 0 01-.146-1.312c-.014-.148-.025-.298-.037-.446-.039-.456-.07-.915-.096-1.377-.008-.171-.018-.342-.025-.515a3.013 3.013 0 01-.004-.086h-8.064c.053 1.273.163 2.52.328 3.736h8.044z" fill="url(#paint23_linear_120_176)"/></g><defs><linearGradient id="paint0_linear_120_176" x1="24.082" y1="57.398" x2="24.082" y2="71.038" gradientUnits="userSpaceOnUse"><stop stop-color="#02AB8A"/><stop offset="1" stop-color="#1A6BA3"/></linearGradient><linearGradient id="paint1_linear_120_176" x1="42.397" y1="63.77" x2="42.397" y2="75.164" gradientUnits="userSpaceOnUse"><stop stop-color="#02AB8A"/><stop offset="1" stop-color="#1A6BA3"/></linearGradient><linearGradient id="paint2_linear_120_176" x1="10.527" y1="35.73" x2="10.527" y2="49.394" gradientUnits="userSpaceOnUse"><stop stop-color="#02AB8A"/><stop offset="1" stop-color="#1A6BA3"/></linearGradient><linearGradient id="paint3_linear_120_176" x1="70.663" y1="49.561" x2="70.663" y2="51.501" gradientUnits="userSpaceOnUse"><stop stop-color="#02AB8A"/><stop offset="1" stop-color="#1A6BA3"/></linearGradient><linearGradient id="paint4_linear_120_176" x1="51.809" y1="63.714" x2="51.809" y2="75.163" gradientUnits="userSpaceOnUse"><stop stop-color="#02AB8A"/><stop offset="1" stop-color="#1A6BA3"/></linearGradient><linearGradient id="paint5_linear_120_176" x1="16.07" y1="53.579" x2="16.07" y2="64.306" gradientUnits="userSpaceOnUse"><stop stop-color="#02AB8A"/><stop offset="1" stop-color="#1A6BA3"/></linearGradient><linearGradient id="paint6_linear_120_176" x1="19.684" y1="40.068" x2="19.684" y2="52.45" gradientUnits="userSpaceOnUse"><stop stop-color="#02AB8A"/><stop offset="1" stop-color="#1A6BA3"/></linearGradient><linearGradient id="paint7_linear_120_176" x1="33.239" y1="61.704" x2="33.239" y2="74.065" gradientUnits="userSpaceOnUse"><stop stop-color="#02AB8A"/><stop offset="1" stop-color="#1A6BA3"/></linearGradient><linearGradient id="paint8_linear_120_176" x1="37.999" y1="42.166" x2="37.999" y2="53.553" gradientUnits="userSpaceOnUse"><stop stop-color="#02AB8A"/><stop offset="1" stop-color="#1A6BA3"/></linearGradient><linearGradient id="paint9_linear_120_176" x1="28.842" y1="42.166" x2="28.842" y2="53.552" gradientUnits="userSpaceOnUse"><stop stop-color="#02AB8A"/><stop offset="1" stop-color="#1A6BA3"/></linearGradient><linearGradient id="paint10_linear_120_176" x1="64.327" y1="29.446" x2="64.327" y2="42.696" gradientUnits="userSpaceOnUse"><stop stop-color="#02AB8A"/><stop offset="1" stop-color="#1A6BA3"/></linearGradient><linearGradient id="paint11_linear_120_176" x1="56.313" y1="35.73" x2="56.313" y2="49.426" gradientUnits="userSpaceOnUse"><stop stop-color="#02AB8A"/><stop offset="1" stop-color="#1A6BA3"/></linearGradient><linearGradient id="paint12_linear_120_176" x1="2.515" y1="29.446" x2="2.515" y2="42.696" gradientUnits="userSpaceOnUse"><stop stop-color="#02AB8A"/><stop offset="1" stop-color="#1A6BA3"/></linearGradient><linearGradient id="paint13_linear_120_176" x1="47.156" y1="40.068" x2="47.156" y2="52.455" gradientUnits="userSpaceOnUse"><stop stop-color="#02AB8A"/><stop offset="1" stop-color="#1A6BA3"/></linearGradient><linearGradient id="paint14_linear_120_176" x1="83.819" y1="49.562" x2="83.819" y2="100" gradientUnits="userSpaceOnUse"><stop stop-color="#02AB8A"/><stop offset="1" stop-color="#1A6BA3"/></linearGradient><linearGradient id="paint15_linear_120_176" x1="53.299" y1="27.084" x2="53.299" y2="60.824" gradientUnits="userSpaceOnUse"><stop stop-color="#02AB8A"/><stop offset="1" stop-color="#1A6BA3"/></linearGradient><linearGradient id="paint16_linear_120_176" x1="33.423" y1="0" x2="33.423" y2="39.212" gradientUnits="userSpaceOnUse"><stop stop-color="#02AB8A"/><stop offset="1" stop-color="#1A6BA3"/></linearGradient><linearGradient id="paint17_linear_120_176" x1="62.423" y1="83.689" x2="62.423" y2="87.425" gradientUnits="userSpaceOnUse"><stop stop-color="#02AB8A"/><stop offset="1" stop-color="#1A6BA3"/></linearGradient><linearGradient id="paint18_linear_120_176" x1="70.632" y1="98.058" x2="70.632" y2="99.998" gradientUnits="userSpaceOnUse"><stop stop-color="#02AB8A"/><stop offset="1" stop-color="#1A6BA3"/></linearGradient><linearGradient id="paint19_linear_120_176" x1="62.436" y1="62.134" x2="62.436" y2="65.87" gradientUnits="userSpaceOnUse"><stop stop-color="#02AB8A"/><stop offset="1" stop-color="#1A6BA3"/></linearGradient><linearGradient id="paint20_linear_120_176" x1="65.383" y1="54.949" x2="65.383" y2="58.687" gradientUnits="userSpaceOnUse"><stop stop-color="#02AB8A"/><stop offset="1" stop-color="#1A6BA3"/></linearGradient><linearGradient id="paint21_linear_120_176" x1="65.358" y1="90.873" x2="65.358" y2="94.61" gradientUnits="userSpaceOnUse"><stop stop-color="#02AB8A"/><stop offset="1" stop-color="#1A6BA3"/></linearGradient><linearGradient id="paint22_linear_120_176" x1="61.151" y1="69.318" x2="61.151" y2="73.055" gradientUnits="userSpaceOnUse"><stop stop-color="#02AB8A"/><stop offset="1" stop-color="#1A6BA3"/></linearGradient><linearGradient id="paint23_linear_120_176" x1="61.152" y1="76.504" x2="61.152" y2="80.24" gradientUnits="userSpaceOnUse"><stop stop-color="#02AB8A"/><stop offset="1" stop-color="#1A6BA3"/></linearGradient><clipPath id="clip0_120_176"><path fill="#fff" d="M0 0h100v100H0z"/></clipPath></defs></svg>