<svg xmlns="http://www.w3.org/2000/svg" width="60" height="60" viewBox="0 0 60 60" fill="none">
    <g clip-path="url(#clip0_39_34)">
        <path d="M54.8414 53.41L46.898 34.2332C46.6957 33.7448 46.1357 33.5126 45.6471 33.715C45.1586 33.9175 44.9265 34.4775 45.1289 34.966L52.3099 52.3023L45.7598 50.4043C45.3299 50.2796 44.8707 50.4698 44.6548 50.8621L41.3652 56.8357L33.66 38.2337C42.5532 36.5187 49.2915 28.678 49.2915 19.2918C49.2917 8.6543 40.6375 0 30 0C19.3625 0 10.7082 8.6543 10.7082 19.2918C10.7082 23.6004 12.1283 27.5834 14.5247 30.7981L5.1586 53.41C5.01779 53.75 5.0843 54.1407 5.32979 54.4149C5.57515 54.6891 5.95622 54.7984 6.30971 54.696L14.0373 52.4567L17.9182 59.5044C18.0872 59.8112 18.4093 60 18.7566 60C18.7743 60 18.792 59.9995 18.8098 59.9986C19.1773 59.9782 19.5005 59.749 19.6415 59.4089L27.0631 41.4915C27.2654 41.003 27.0335 40.4429 26.5449 40.2406C26.0563 40.0383 25.4963 40.2702 25.294 40.7588L18.6346 56.8357L15.3452 50.8621C15.1292 50.4698 14.6698 50.2796 14.24 50.4043L7.69009 52.3023L15.911 32.4551C19.4341 36.2237 24.4463 38.5834 30 38.5834C30.5733 38.5834 31.1404 38.5568 31.7011 38.5076L40.3587 59.4089C40.4995 59.749 40.8229 59.9782 41.1903 59.9985C41.2081 59.9995 41.2257 60 41.2435 60C41.5909 60 41.9129 59.8112 42.0818 59.5044L45.9628 52.4567L53.6904 54.696C54.0442 54.7985 54.4249 54.6891 54.6703 54.4149C54.9158 54.1407 54.9822 53.75 54.8414 53.41ZM12.6231 19.2918C12.6231 9.71017 20.4184 1.91489 30 1.91489C39.5816 1.91489 47.3768 9.71017 47.3768 19.2918C47.3768 28.8734 39.5816 36.6686 30 36.6686C20.4184 36.6686 12.6231 28.8734 12.6231 19.2918Z" fill="white"/>
        <path d="M41.0629 15.6972C40.9527 15.3579 40.6627 15.108 40.3107 15.0489L33.8681 13.9677L30.8491 8.17465C30.6841 7.85818 30.357 7.65967 30 7.65967C29.6432 7.65967 29.3159 7.85818 29.151 8.17465L26.1318 13.9677L19.6893 15.0489C19.3374 15.1078 19.0475 15.3578 18.9372 15.6972C18.8269 16.0367 18.9144 16.4092 19.1645 16.6639L23.7411 21.3254L22.7786 27.7867C22.726 28.1397 22.8741 28.4926 23.1628 28.7024C23.4513 28.9121 23.8329 28.9438 24.1523 28.7849L30 25.8727L35.8476 28.7849C35.9828 28.8522 36.1288 28.8854 36.2744 28.8854C36.4731 28.8854 36.6706 28.8236 36.8372 28.7026C37.126 28.4927 37.2741 28.1398 37.2215 27.7869L36.259 21.3255L40.8356 16.6639C41.0856 16.4092 41.1732 16.0367 41.0629 15.6972ZM34.5585 20.3241C34.3481 20.5385 34.2504 20.839 34.2947 21.1359L35.0569 26.2518L30.4269 23.9461C30.2924 23.8792 30.1463 23.8456 30 23.8456C29.8538 23.8456 29.7075 23.8791 29.5732 23.9461L24.9433 26.2518L25.7054 21.1359C25.7497 20.839 25.6521 20.5383 25.4417 20.3241L21.8181 16.6332L26.919 15.7772C27.2151 15.7275 27.4708 15.5418 27.6096 15.2755L30 10.6888L32.3904 15.2756C32.5293 15.5419 32.7849 15.7276 33.0811 15.7773L38.1821 16.6334L34.5585 20.3241Z" fill="white"/>
        <path d="M44.5037 20.2576C43.9794 20.1875 43.4981 20.5567 43.4288 21.081C42.5406 27.784 36.7675 32.8389 30 32.8389C22.5301 32.8389 16.4529 26.7618 16.4529 19.2918C16.4529 11.8218 22.5301 5.74473 30 5.74473C36.7676 5.74473 42.5406 10.7995 43.4288 17.5027C43.4981 18.027 43.9802 18.3964 44.5037 18.3261C45.0277 18.2566 45.3965 17.7754 45.3269 17.2512C44.3133 9.59979 37.7242 3.82983 30 3.82983C21.4742 3.82983 14.538 10.766 14.538 19.2918C14.538 27.8177 21.4742 34.7537 30 34.7537C37.7242 34.7537 44.3133 28.9837 45.3271 21.3323C45.3965 20.8083 45.0278 20.327 44.5037 20.2576Z" fill="white"/>
    </g>
    <defs>
        <clipPath id="clip0_39_34">
            <rect width="60" height="60" fill="white"/>
        </clipPath>
    </defs>
</svg>
