<svg xmlns="http://www.w3.org/2000/svg" width="60" height="60" viewBox="0 0 60 60" fill="none">
    <g clip-path="url(#clip0_40_41)">
        <path d="M46.5374 52.1484H44.3432C45.0775 51.54 45.448 50.8596 45.448 50.1111C45.2554 45.4924 30.6089 49.0063 29.7933 49.0875C26.5433 49.7947 22.9464 50.9333 20.1103 52.1484H19.2391C19.2053 52.1327 19.1705 52.1182 19.1339 52.1067C16.8427 51.3812 16.0297 50.5566 16.0297 50.0709C16.0297 49.9553 16.143 48.8951 20.0065 47.1673C25.7611 48.5789 35.0312 48.5107 40.5016 46.9134C43.7838 45.9784 45.448 44.6974 45.448 43.1055C45.2557 38.487 30.6084 42.0006 29.7933 42.0819C26.4561 42.808 22.7509 43.9888 19.8817 45.2405C19.8466 45.2557 19.8131 45.2729 19.7811 45.292C19.7527 45.2843 19.7245 45.2764 19.6963 45.2685C16.99 44.51 16.0297 43.6076 16.0297 43.0652C16.0297 42.9496 16.143 41.8893 20.0065 40.1616C25.7611 41.5732 35.0312 41.505 40.5016 39.9077C43.7838 38.9727 45.448 37.6917 45.448 36.0998C45.448 35.5414 45.2021 35.0482 44.737 34.6734C42.0313 32.4929 31.0378 34.8054 29.7932 35.0762C26.456 35.8023 22.7508 36.9831 19.8816 38.2348C19.8465 38.25 19.813 38.2672 19.781 38.2863C19.7525 38.2786 19.7244 38.2707 19.6962 38.2628C16.9898 37.5043 16.0296 36.6019 16.0296 36.0595C16.0296 35.9439 16.1429 34.8836 20.0064 33.1559C25.761 34.5675 35.0311 34.4993 40.5015 32.902C43.7837 31.967 45.4479 30.686 45.4479 29.0941C45.4479 28.5357 45.202 28.0425 44.7369 27.6677C42.0312 25.4872 31.0378 27.7996 29.793 28.0705C26.4565 28.7964 22.7512 29.9773 19.8814 31.2291C19.8464 31.2443 19.8129 31.2615 19.7809 31.2806C19.7524 31.2729 19.7243 31.265 19.6961 31.2571C16.9897 30.4986 16.0295 29.5962 16.0295 29.0538C16.0295 28.9377 16.1425 27.8685 20.0576 26.1268C20.0644 26.1238 20.0707 26.12 20.0774 26.1168C25.8286 27.5149 35.0638 27.4444 40.5212 25.8507C43.8034 24.9157 45.4676 23.6347 45.4676 22.0429C45.2753 17.4243 30.6282 20.9379 29.8128 21.0192C26.4764 21.7451 22.7711 22.9259 19.9012 24.1777C19.8661 24.1929 19.8326 24.2102 19.8006 24.2293C19.7723 24.2216 19.744 24.2136 19.7159 24.2058C17.0095 23.4473 16.0493 22.5449 16.0493 22.0025C16.0493 21.6506 16.6021 20.7546 18.6737 19.6282C20.5007 18.6347 22.9567 17.7734 25.412 17.2645C25.4523 17.2562 25.4909 17.2443 25.5286 17.2309H41.4592C42.8623 17.2309 44.0037 16.0895 44.0037 14.6864V11.1328H45.5648C47.1598 11.1328 48.457 9.83555 48.457 8.24086V2.89195C48.457 1.29727 47.1598 0 45.5651 0H22.0833C20.9195 0.0403125 20.9204 1.71785 22.0833 1.75781H45.5651C46.1904 1.75781 46.6992 2.26664 46.6992 2.89195V8.24098C46.6992 8.86629 46.1905 9.37512 45.5651 9.37512H14.4349C13.8096 9.37512 13.3008 8.86629 13.3008 8.24098V2.89195C13.3008 2.26664 13.8095 1.75781 14.4349 1.75781H18.0209C19.1846 1.7175 19.1837 0.0399609 18.0209 0H14.4349C12.8402 0 11.543 1.29727 11.543 2.89195V8.24098C11.543 9.83555 12.8402 11.1328 14.4349 11.1328H15.9961V14.6864C15.9961 16.0895 17.1375 17.2309 18.5406 17.2309H19.6148C17.2241 18.1936 14.1745 20.1318 14.2918 22.0025C14.2917 23.4342 15.5803 24.545 17.6298 25.3598C13.2183 27.6197 13.1364 30.6541 17.5739 32.3962C13.2046 34.654 13.1691 37.6758 17.5739 39.402C13.2045 41.6597 13.1691 44.6816 17.5739 46.4077C14.5282 48.0735 13.1229 50.0701 15.3383 52.1483H13.4625C11.887 52.1483 10.6054 53.4301 10.6054 55.0055V57.8026C10.6054 59.0142 11.591 59.9999 12.8026 59.9999H38.3592C39.523 59.9596 39.5221 58.282 38.3592 58.2421H12.8027C12.5604 58.2421 12.3633 58.0448 12.3633 57.8026V55.0055C12.3633 54.3993 12.8564 53.9061 13.4626 53.9061H20.0373C20.1676 53.9381 20.303 53.9386 20.4346 53.9061H46.5374C47.1436 53.9061 47.6367 54.3993 47.6367 55.0055V57.8026C47.6367 58.0448 47.4396 58.2421 47.1973 58.2421H42.4609C41.2971 58.2824 41.298 59.9599 42.4609 59.9999H47.1973C48.4089 59.9999 49.3945 59.0142 49.3945 57.8026V55.0055C49.3945 53.4302 48.1129 52.1484 46.5374 52.1484ZM17.7539 14.6864V11.1371H42.2461V14.6864C42.2461 15.1201 41.8932 15.4731 41.4594 15.4731H18.5406C18.1068 15.4731 17.7539 15.1201 17.7539 14.6864ZM30.1869 22.7367C33.3558 22.0472 36.628 21.5865 39.1644 21.4725C43.2069 21.2913 43.7084 22.0369 43.7101 22.0429C42.9929 24.8432 29.6845 26.1296 22.8991 24.8702C25.2059 24.019 27.793 23.2576 30.1869 22.7367ZM30.1671 29.7878C33.336 29.0982 36.6082 28.6376 39.1446 28.5236C43.1869 28.3425 43.6886 29.0879 43.6903 29.0939C42.9731 31.8942 29.6648 33.1807 22.8795 31.9213C25.1862 31.0702 27.7732 30.3088 30.1671 29.7878ZM30.1671 36.7936C33.336 36.1041 36.6082 35.6434 39.1446 35.5294C43.1869 35.3484 43.6886 36.0936 43.6903 36.0997C42.9731 38.9 29.6648 40.1865 22.8796 38.9271C25.1858 38.0761 27.773 37.3146 30.1671 36.7936ZM30.1671 43.7993C33.336 43.1098 36.6082 42.6491 39.1446 42.5351C43.1869 42.3538 43.6886 43.0993 43.6903 43.1054C42.9731 45.9057 29.6648 47.1922 22.8796 45.9328C25.1858 45.0818 27.773 44.3203 30.1671 43.7993ZM30.1671 50.805C33.336 50.1155 36.6082 49.6548 39.1446 49.5408C43.1869 49.3596 43.6886 50.1052 43.6903 50.1111C43.6903 50.4575 42.9933 51.3251 40.3555 52.1297C40.3377 52.1351 40.3207 52.142 40.3035 52.1484H25.1822C26.8342 51.6216 28.5449 51.1581 30.1671 50.805Z" fill="white"/>
    </g>
    <defs>
        <clipPath id="clip0_40_41">
            <rect width="60" height="60" fill="white"/>
        </clipPath>
    </defs>
</svg>
