<svg xmlns="http://www.w3.org/2000/svg" width="100" height="100" fill="none"><g clip-path="url(#clip0_120_157)"><path d="M93.425 49.558h.01L82.998 27.745h-19.83v-5.323H43.213c-4.167-11.567-16.922-17.567-28.49-13.4C3.157 13.188-2.842 25.943 1.324 37.51A22.261 22.261 0 006.1 45.27v37.57h12.44c1.758 6.756 8.659 10.808 15.415 9.05a12.639 12.639 0 009.05-9.05h18.004c1.757 6.756 8.658 10.808 15.413 9.05a12.639 12.639 0 009.05-9.05H100V58l-6.575-8.443zM30.772 86.035h.037-.037zm6.44-6.387a6.398 6.398 0 11-12.796-.021 6.398 6.398 0 0112.796.02zm1.095-49.628c-.011 8.841-7.179 16.005-16.02 16.01-8.848 0-16.021-7.172-16.021-16.02 0-8.848 7.173-16.021 16.02-16.021 8.849 0 16.021 7.173 16.021 16.02v.011zm41.33 49.628a6.398 6.398 0 110-.011v.01zM63.242 47.93V34.007h15.844l6.627 13.923h-22.47z" fill="url(#paint0_linear_120_157)"/><path d="M25.418 17.34h-6.262v15.81h14.57v-6.26h-8.308v-9.55z" fill="url(#paint1_linear_120_157)"/></g><defs><linearGradient id="paint0_linear_120_157" x1="50" y1="7.698" x2="50" y2="92.302" gradientUnits="userSpaceOnUse"><stop stop-color="#02AB8A"/><stop offset="1" stop-color="#1A6BA3"/></linearGradient><linearGradient id="paint1_linear_120_157" x1="26.441" y1="17.339" x2="26.441" y2="33.151" gradientUnits="userSpaceOnUse"><stop stop-color="#02AB8A"/><stop offset="1" stop-color="#1A6BA3"/></linearGradient><clipPath id="clip0_120_157"><path fill="#fff" d="M0 0h100v100H0z"/></clipPath></defs></svg>