<svg xmlns="http://www.w3.org/2000/svg" width="231" height="68" viewBox="0 0 231 68" fill="none">
    <path d="M77.5126 4.31911L77.4112 3.32427L77.5126 4.31911ZM89.437 3.10286L89.5385 4.0977L89.437 3.10286ZM163.63 20.5387L164.164 19.6932L163.63 20.5387ZM228.535 62.3644C229.073 62.2428 229.412 61.7074 229.29 61.1687L227.307 52.3898C227.186 51.8511 226.65 51.513 226.112 51.6347C225.573 51.7564 225.235 52.2917 225.356 52.8304L227.119 60.6339L219.315 62.3962C218.777 62.5179 218.438 63.0532 218.56 63.592C218.682 64.1307 219.217 64.4688 219.756 64.3471L228.535 62.3644ZM3.02621 56.8961C3.7323 55.4794 4.4716 54.0853 5.24296 52.7147L3.50001 51.7338C2.71226 53.1336 1.95726 54.5573 1.2362 56.004L3.02621 56.8961ZM10.2908 44.7154C12.1134 42.1259 14.059 39.64 16.1177 37.2647L14.6063 35.9548C12.5038 38.3808 10.5167 40.9196 8.65527 43.5643L10.2908 44.7154ZM22.6651 30.4375C24.9634 28.2707 27.3669 26.2235 29.8656 24.3029L28.6467 22.7172C26.095 24.6786 23.6403 26.7693 21.2931 28.9822L22.6651 30.4375ZM37.6456 18.9225C40.3245 17.2625 43.0882 15.7362 45.9268 14.3506L45.0494 12.5533C42.1505 13.9684 39.3279 15.5272 36.5922 17.2224L37.6456 18.9225ZM54.6255 10.6341C57.5745 9.54629 60.5871 8.60328 63.6533 7.81191L63.1534 5.87537C60.0219 6.6836 56.9452 7.6467 53.9333 8.75771L54.6255 10.6341ZM72.9193 5.91222C74.474 5.67426 76.0393 5.47457 77.6141 5.31395L77.4112 3.32427C75.803 3.4883 74.2045 3.69223 72.6167 3.93525L72.9193 5.91222ZM77.6141 5.31395L80.5952 5.00989L80.3923 3.02021L77.4112 3.32427L77.6141 5.31395ZM86.5574 4.40176L89.5385 4.0977L89.3355 2.10802L86.3544 2.41208L86.5574 4.40176ZM89.5385 4.0977C91.1365 3.93471 92.7351 3.80524 94.3332 3.70907L94.213 1.71268C92.5873 1.81051 90.9612 1.94222 89.3355 2.10802L89.5385 4.0977ZM103.95 3.53073C107.162 3.60471 110.365 3.81229 113.549 4.15159L113.761 2.16285C110.522 1.81769 107.264 1.60651 103.996 1.53126L103.95 3.53073ZM123.063 5.56724C126.213 6.17072 129.337 6.90486 132.426 7.76775L132.964 5.84148C129.822 4.96369 126.644 4.21686 123.439 3.60296L123.063 5.56724ZM141.575 10.7379C144.577 11.8524 147.536 13.0929 150.445 14.4574L151.295 12.6467C148.336 11.2586 145.325 9.99672 142.271 8.86297L141.575 10.7379ZM158.976 18.9007C160.364 19.6986 161.738 20.5265 163.096 21.3842L164.164 19.6932C162.782 18.8207 161.385 17.9785 159.973 17.1668L158.976 18.9007ZM163.096 21.3842L167.139 23.9374L168.207 22.2464L164.164 19.6932L163.096 21.3842ZM175.224 29.0437L183.31 34.1499L184.378 32.4589L176.292 27.3526L175.224 29.0437ZM191.395 39.2562L199.481 44.3625L200.549 42.6715L192.463 37.5652L191.395 39.2562ZM207.567 49.4688L215.652 54.5751L216.72 52.8841L208.635 47.7778L207.567 49.4688ZM223.738 59.6814L227.781 62.2345L228.848 60.5435L224.806 57.9904L223.738 59.6814ZM77.5126 4.31911L77.3097 2.32943L77.5126 4.31911ZM89.437 3.10286L89.6399 5.09254L89.437 3.10286ZM163.63 20.5387L164.698 18.8477L163.63 20.5387ZM228.755 63.3399C229.833 63.0966 230.509 62.0259 230.265 60.9484L226.3 43.3906C226.057 42.3132 224.986 41.637 223.909 41.8804C222.831 42.1237 222.155 43.1944 222.398 44.2718L225.923 59.8787L210.316 63.4034C209.239 63.6468 208.562 64.7175 208.806 65.7949C209.049 66.8723 210.12 67.5485 211.197 67.3052L228.755 63.3399ZM3.92121 57.3422C4.61981 55.9405 5.35128 54.5612 6.11444 53.2051L2.62854 51.2434C1.83259 52.6577 1.06974 54.0962 0.341201 55.558L3.92121 57.3422ZM11.1085 45.291C12.9117 42.729 14.8366 40.2697 16.8733 37.9196L13.8506 35.2999C11.7262 37.7511 9.71841 40.3164 7.83752 42.9887L11.1085 45.291ZM23.3511 31.1651C25.625 29.0213 28.0029 26.9959 30.475 25.0957L28.0373 21.9244C25.459 23.9062 22.9788 26.0187 20.6071 28.2546L23.3511 31.1651ZM38.1724 19.7725C40.8227 18.1302 43.5571 16.6201 46.3654 15.2492L44.6107 11.6546C41.6816 13.0845 38.8297 14.6595 36.0654 16.3724L38.1724 19.7725ZM54.9716 11.5723C57.8892 10.4961 60.8697 9.56312 63.9032 8.78017L62.9035 4.9071C59.7394 5.72376 56.6305 6.69691 53.5872 7.81951L54.9716 11.5723ZM73.0706 6.90071C74.6088 6.66528 76.1575 6.4677 77.7156 6.30878L77.3097 2.32943C75.6849 2.49516 74.0697 2.70121 72.4654 2.94676L73.0706 6.90071ZM77.7156 6.30878L80.6967 6.00473L80.2908 2.02537L77.3097 2.32943L77.7156 6.30878ZM86.6588 5.3966L89.6399 5.09254L89.2341 1.11319L86.253 1.41724L86.6588 5.3966ZM89.6399 5.09254C91.2242 4.93095 92.8089 4.8026 94.3932 4.70727L94.153 0.714489C92.5135 0.813149 90.8735 0.945968 89.2341 1.11319L89.6399 5.09254ZM103.927 4.53047C107.112 4.6038 110.286 4.8096 113.443 5.14596L113.867 1.16848C110.6 0.820386 107.315 0.607418 104.019 0.531528L103.927 4.53047ZM122.875 6.54939C125.998 7.14765 129.095 7.87546 132.157 8.73089L133.233 4.87835C130.064 3.9931 126.859 3.23993 123.627 2.62082L122.875 6.54939ZM141.227 11.6754C144.203 12.7803 147.137 14.01 150.021 15.3628L151.719 11.7414C148.735 10.3415 145.699 9.06887 142.619 7.92549L141.227 11.6754ZM158.478 19.7676C159.854 20.5586 161.216 21.3794 162.562 22.2297L164.698 18.8477C163.305 17.9678 161.895 17.1184 160.471 16.2998L158.478 19.7676ZM162.562 22.2297L166.605 24.7829L168.741 21.4009L164.698 18.8477L162.562 22.2297ZM174.69 29.8892L182.776 34.9955L184.912 31.6134L176.826 26.5071L174.69 29.8892ZM190.862 40.1017L198.947 45.208L201.083 41.826L192.997 36.7197L190.862 40.1017ZM207.033 50.3143L215.118 55.4206L217.254 52.0386L209.168 46.9323L207.033 50.3143ZM223.204 60.5269L227.247 63.08L229.382 59.698L225.34 57.1449L223.204 60.5269Z" fill="black"/>
</svg>
