<svg xmlns="http://www.w3.org/2000/svg" width="212" height="53" viewBox="0 0 212 53" fill="none">
    <path d="M4.26106 18.2822L4.89817 17.5115L4.26106 18.2822ZM164.282 32.9955L163.796 32.1215L164.282 32.9955ZM209.658 6.96085C210.19 7.11242 210.497 7.66582 210.346 8.1969L207.875 16.8513C207.724 17.3824 207.171 17.69 206.639 17.5384C206.108 17.3869 205.801 16.8335 205.952 16.3024L208.148 8.60959L200.455 6.41395C199.924 6.26236 199.616 5.70896 199.768 5.17789C199.92 4.64681 200.473 4.33917 201.004 4.49074L209.658 6.96085ZM72.5377 49.1575L72.6957 48.17L72.5377 49.1575ZM2.13714 15.2292L2.8274 15.7998L1.55317 17.3413L0.86291 16.7707L2.13714 15.2292ZM4.20792 16.9409L4.89817 17.5115L3.62394 19.053L2.93368 18.4824L4.20792 16.9409ZM4.89817 17.5115C6.10851 18.5119 7.33412 19.4911 8.57442 20.4488L7.35215 22.0318C6.09431 21.0606 4.85138 20.0676 3.62394 19.053L4.89817 17.5115ZM16.2096 25.9486C18.8178 27.6987 21.4807 29.3594 24.1935 30.9288L23.192 32.66C20.4409 31.0684 17.7403 29.3842 15.0953 27.6094L16.2096 25.9486ZM32.4908 35.3673C35.305 36.7543 38.1646 38.0475 41.0647 39.2445L40.3017 41.0932C37.3606 39.8793 34.4606 38.5679 31.6066 37.1612L32.4908 35.3673ZM49.8774 42.5432C52.8475 43.5437 55.8532 44.4463 58.8898 45.249L58.3787 47.1826C55.2992 46.3686 52.251 45.4532 49.2389 44.4386L49.8774 42.5432ZM68.0622 47.3496C69.6004 47.6484 71.1451 47.922 72.6957 48.17L72.3798 50.1449C70.8073 49.8934 69.2407 49.6159 67.6808 49.3129L68.0622 47.3496ZM72.6957 48.17C74.2489 48.4185 75.804 48.6407 77.3604 48.8368L77.1104 50.8212C75.532 50.6223 73.9549 50.3969 72.3798 50.1449L72.6957 48.17ZM86.742 49.7028C89.8831 49.8875 93.0243 49.967 96.1604 49.9423L96.1762 51.9422C92.9957 51.9673 89.8101 51.8866 86.6246 51.6993L86.742 49.7028ZM105.574 49.5544C108.709 49.3205 111.833 48.9823 114.941 48.5408L115.223 50.5209C112.07 50.9687 108.902 51.3116 105.723 51.5488L105.574 49.5544ZM124.22 46.9062C127.292 46.2589 130.344 45.5091 133.37 44.6578L133.911 46.5831C130.843 47.4464 127.748 48.2067 124.632 48.8632L124.22 46.9062ZM142.349 41.8055C145.305 40.757 148.23 39.6089 151.119 38.3619L151.912 40.1981C148.982 41.4627 146.016 42.6271 143.018 43.6904L142.349 41.8055ZM159.64 34.3422C161.036 33.626 162.421 32.8858 163.796 32.1215L164.768 33.8695C163.373 34.6446 161.968 35.3953 160.553 36.1216L159.64 34.3422ZM163.796 32.1215L167.554 30.0321L168.526 31.7801L164.768 33.8695L163.796 32.1215ZM175.071 25.8532L182.589 21.6744L183.56 23.4224L176.043 27.6013L175.071 25.8532ZM190.106 17.4955L197.623 13.3167L198.594 15.0647L191.077 19.2436L190.106 17.4955ZM205.14 9.13784L208.898 7.04842L209.87 8.79646L206.111 10.8859L205.14 9.13784ZM4.26106 18.2822L5.53529 16.7407L4.26106 18.2822ZM164.282 32.9955L163.31 31.2475L164.282 32.9955ZM209.933 5.99924C210.995 6.30239 211.61 7.4092 211.307 8.47135L206.367 25.7801C206.064 26.8423 204.957 27.4576 203.895 27.1544C202.833 26.8513 202.217 25.7445 202.521 24.6823L206.912 9.29673L191.526 4.90544C190.464 4.60229 189.849 3.49549 190.152 2.43333C190.455 1.37118 191.562 0.755889 192.624 1.05904L209.933 5.99924ZM72.5377 49.1575L72.8536 47.1826L72.5377 49.1575ZM2.77426 14.4584L3.46452 15.029L0.916051 18.1121L0.225793 17.5415L2.77426 14.4584ZM4.84503 16.1701L5.53529 16.7407L2.98682 19.8238L2.29657 19.2532L4.84503 16.1701ZM5.53529 16.7407C6.73707 17.7341 7.95402 18.7064 9.18556 19.6572L6.74101 22.8233C5.47441 21.8454 4.22281 20.8454 2.98682 19.8238L5.53529 16.7407ZM16.7668 25.1182C19.3566 26.8559 22.0006 28.5049 24.6943 30.0632L22.6913 33.5256C19.921 31.9229 17.2016 30.227 14.5381 28.4398L16.7668 25.1182ZM32.9329 34.4703C35.7272 35.8476 38.5666 37.1316 41.4462 38.3201L39.9202 42.0175C36.9585 40.7952 34.0383 39.4746 31.1645 38.0581L32.9329 34.4703ZM50.1966 41.5956C53.1457 42.589 56.1302 43.4852 59.1453 44.2821L58.1232 48.1494C55.0222 47.3297 51.9527 46.408 48.9197 45.3863L50.1966 41.5956ZM68.2529 46.368C69.7802 46.6647 71.314 46.9363 72.8536 47.1826L72.2218 51.1324C70.6383 50.8791 69.0609 50.5997 67.4901 50.2945L68.2529 46.368ZM72.8536 47.1826C74.3959 47.4293 75.94 47.65 77.4854 47.8447L76.9854 51.8133C75.396 51.6131 73.8079 51.3861 72.2218 51.1324L72.8536 47.1826ZM86.8007 48.7045C89.9196 48.8879 93.0386 48.9669 96.1526 48.9423L96.1841 52.9422C92.9815 52.9674 89.7737 52.8862 86.5659 52.6976L86.8007 48.7045ZM105.5 48.5571C108.612 48.3249 111.714 47.9891 114.801 47.5507L115.363 51.511C112.189 51.9618 108.998 52.3072 105.798 52.546L105.5 48.5571ZM124.014 45.9277C127.065 45.2849 130.095 44.5404 133.099 43.6952L134.182 47.5457C131.092 48.415 127.976 49.1807 124.839 49.8418L124.014 45.9277ZM142.015 40.863C144.95 39.822 147.854 38.6819 150.723 37.4438L152.308 41.1162C149.358 42.3897 146.371 43.5622 143.352 44.6329L142.015 40.863ZM159.183 33.4525C160.569 32.7414 161.945 32.0063 163.31 31.2475L165.254 34.7436C163.85 35.524 162.435 36.28 161.009 37.0113L159.183 33.4525ZM163.31 31.2475L167.069 29.158L169.012 32.6541L165.254 34.7436L163.31 31.2475ZM174.586 24.9792L182.103 20.8004L184.046 24.2964L176.529 28.4753L174.586 24.9792ZM189.62 16.6215L197.137 12.4427L199.08 15.9388L191.563 20.1176L189.62 16.6215ZM204.654 8.26382L208.412 6.17439L210.356 9.67049L206.597 11.7599L204.654 8.26382Z" fill="black"/>
</svg>
