<svg xmlns="http://www.w3.org/2000/svg" width="231" height="68" viewBox="0 0 231 68" fill="none">
    <path d="M77.8271 4.67555L77.7257 3.68071L77.8271 4.67555ZM89.7515 3.45931L89.8529 4.45415L89.7515 3.45931ZM163.944 20.8952L164.478 20.0497L163.944 20.8952ZM228.849 62.7209C229.388 62.5992 229.726 62.0639 229.604 61.5252L227.622 52.7463C227.5 52.2075 226.965 51.8695 226.426 51.9911C225.887 52.1128 225.549 52.6481 225.671 53.1869L227.433 60.9903L219.63 62.7527C219.091 62.8743 218.753 63.4097 218.875 63.9484C218.996 64.4871 219.532 64.8252 220.07 64.7035L228.849 62.7209ZM3.34069 57.2526C4.04678 55.8359 4.78609 54.4418 5.55745 53.0711L3.8145 52.0902C3.02674 53.49 2.27174 54.9137 1.55069 56.3605L3.34069 57.2526ZM10.6053 45.0719C12.4279 42.4823 14.3735 39.9965 16.4322 37.6211L14.9208 36.3113C12.8183 38.7372 10.8312 41.276 8.96976 43.9207L10.6053 45.0719ZM22.9796 30.7939C25.2779 28.6271 27.6814 26.5799 30.1801 24.6593L28.9612 23.0736C26.4095 25.035 23.9548 27.1258 21.6076 29.3387L22.9796 30.7939ZM37.9601 19.2789C40.6389 17.619 43.4027 16.0927 46.2412 14.707L45.3639 12.9097C42.4649 14.3249 39.6424 15.8836 36.9066 17.5789L37.9601 19.2789ZM54.94 10.9906C57.889 9.90273 60.9016 8.95973 63.9677 8.16835L63.4679 6.23181C60.3364 7.04005 57.2597 8.00315 54.2478 9.11416L54.94 10.9906ZM73.2338 6.26867C74.7885 6.03071 76.3538 5.83101 77.9286 5.67039L77.7257 3.68071C76.1175 3.84474 74.519 4.04867 72.9312 4.29169L73.2338 6.26867ZM77.9286 5.67039L80.9097 5.36633L80.7067 3.37665L77.7257 3.68071L77.9286 5.67039ZM86.8719 4.75821L89.8529 4.45415L89.65 2.46447L86.6689 2.76853L86.8719 4.75821ZM89.8529 4.45415C91.451 4.29115 93.0496 4.16169 94.6477 4.06552L94.5275 2.06913C92.9018 2.16696 91.2756 2.29866 89.65 2.46447L89.8529 4.45415ZM104.265 3.88718C107.477 3.96115 110.679 4.16874 113.863 4.50803L114.075 2.5193C110.836 2.17414 107.578 1.96296 104.311 1.88771L104.265 3.88718ZM123.377 5.92368C126.528 6.52717 129.651 7.26131 132.741 8.1242L133.279 6.19793C130.136 5.32014 126.958 4.5733 123.754 3.9594L123.377 5.92368ZM141.889 11.0944C144.891 12.2089 147.851 13.4493 150.76 14.8139L151.609 13.0032C148.65 11.6151 145.639 10.3532 142.586 9.21942L141.889 11.0944ZM159.291 19.2571C160.679 20.055 162.052 20.883 163.411 21.7407L164.478 20.0497C163.097 19.1771 161.7 18.3349 160.288 17.5232L159.291 19.2571ZM163.411 21.7407L167.453 24.2938L168.521 22.6028L164.478 20.0497L163.411 21.7407ZM175.539 29.4001L183.624 34.5064L184.692 32.8154L176.607 27.7091L175.539 29.4001ZM191.71 39.6127L199.796 44.719L200.863 43.028L192.778 37.9217L191.71 39.6127ZM207.881 49.8253L215.967 54.9315L217.035 53.2405L208.949 48.1342L207.881 49.8253ZM224.052 60.0378L228.095 62.591L229.163 60.9L225.12 58.3468L224.052 60.0378ZM77.8271 4.67555L77.6242 2.68588L77.8271 4.67555ZM89.7515 3.45931L89.9544 5.44898L89.7515 3.45931ZM163.944 20.8952L165.012 19.2042L163.944 20.8952ZM229.07 63.6963C230.147 63.453 230.823 62.3823 230.58 61.3049L226.615 43.7471C226.371 42.6696 225.301 41.9935 224.223 42.2368C223.146 42.4801 222.469 43.5508 222.713 44.6283L226.238 60.2352L210.631 63.7599C209.553 64.0032 208.877 65.0739 209.12 66.1513C209.364 67.2288 210.434 67.905 211.512 67.6616L229.07 63.6963ZM4.23569 57.6987C4.9343 56.2969 5.66576 54.9176 6.42892 53.5616L2.94302 51.5998C2.14707 53.0141 1.38422 54.4526 0.655685 55.9144L4.23569 57.6987ZM11.423 45.6474C13.2262 43.0855 15.1511 40.6261 17.1878 38.2761L14.1651 35.6563C12.0406 38.1076 10.0329 40.6728 8.15201 43.3451L11.423 45.6474ZM23.6656 31.5215C25.9394 29.3778 28.3174 27.3523 30.7895 25.4522L28.3518 22.2808C25.7735 24.2626 23.2933 26.3751 20.9216 28.6111L23.6656 31.5215ZM38.4868 20.129C41.1372 18.4866 43.8716 16.9766 46.6799 15.6057L44.9252 12.0111C41.9961 13.441 39.1442 15.016 36.3799 16.7289L38.4868 20.129ZM55.286 11.9288C58.2037 10.8525 61.1841 9.91956 64.2177 9.13662L63.218 5.26354C60.0538 6.08021 56.945 7.05336 53.9017 8.17595L55.286 11.9288ZM73.3851 7.25716C74.9233 7.02173 76.472 6.82415 78.0301 6.66523L77.6242 2.68588C75.9993 2.8516 74.3842 3.05766 72.7799 3.3032L73.3851 7.25716ZM78.0301 6.66523L81.0111 6.36117L80.6053 2.38181L77.6242 2.68588L78.0301 6.66523ZM86.9733 5.75305L89.9544 5.44898L89.5485 1.46963L86.5675 1.77369L86.9733 5.75305ZM89.9544 5.44898C91.5387 5.2874 93.1234 5.15905 94.7077 5.06371L94.4675 1.07093C92.8279 1.16959 91.188 1.30241 89.5485 1.46963L89.9544 5.44898ZM104.242 4.88691C107.426 4.96025 110.601 5.16604 113.757 5.50241L114.181 1.52492C110.914 1.17683 107.629 0.963863 104.334 0.887973L104.242 4.88691ZM123.189 6.90583C126.312 7.5041 129.409 8.2319 132.472 9.08734L133.548 5.23479C130.378 4.34954 127.174 3.59637 123.942 2.97726L123.189 6.90583ZM141.541 12.0319C144.517 13.1367 147.451 14.3665 150.335 15.7192L152.034 12.0978C149.05 10.6979 146.013 9.42532 142.934 8.28194L141.541 12.0319ZM158.792 20.1241C160.168 20.9151 161.53 21.7359 162.877 22.5862L165.012 19.2042C163.619 18.3242 162.21 17.4748 160.786 16.6562L158.792 20.1241ZM162.877 22.5862L166.919 25.1393L169.055 21.7573L165.012 19.2042L162.877 22.5862ZM175.005 30.2456L183.09 35.3519L185.226 31.9699L177.141 26.8636L175.005 30.2456ZM191.176 40.4582L199.262 45.5645L201.397 42.1824L193.312 37.0762L191.176 40.4582ZM207.347 50.6708L215.433 55.777L217.569 52.395L209.483 47.2887L207.347 50.6708ZM223.518 60.8833L227.561 63.4365L229.697 60.0544L225.654 57.5013L223.518 60.8833Z" fill="black"/>
</svg>
