<svg xmlns="http://www.w3.org/2000/svg" width="124" height="203" viewBox="0 0 124 203" fill="none">
    <path d="M48.1586 169.099L48.6636 169.962L48.1586 169.099ZM2.0144 195.281C1.87457 195.815 2.19434 196.362 2.72863 196.501L11.4354 198.78C11.9697 198.92 12.5162 198.6 12.656 198.066C12.7958 197.532 12.476 196.985 11.9418 196.845L4.20242 194.82L6.22795 187.08C6.36778 186.546 6.04801 186 5.51372 185.86C4.97943 185.72 4.43295 186.04 4.29311 186.574L2.0144 195.281ZM112.899 100.202L111.947 99.8963L112.899 100.202ZM107.5 117L108.29 117.612L108.398 117.473L108.452 117.306L107.5 117ZM115.568 1.49486C115.959 3.11175 116.328 4.73245 116.674 6.35649L118.63 5.9395C118.28 4.29759 117.907 2.65906 117.512 1.0244L115.568 1.49486ZM118.485 16.1606C118.999 19.4482 119.422 22.7457 119.755 26.0492L121.745 25.8488C121.409 22.509 120.981 19.1753 120.461 15.8515L118.485 16.1606ZM120.481 35.9928C120.633 39.3146 120.693 42.6386 120.661 45.9612L122.661 45.9799C122.693 42.6208 122.632 39.2602 122.479 35.9019L120.481 35.9928ZM120.295 55.9245C120.082 59.2404 119.778 62.551 119.383 65.8527L121.369 66.0902C121.768 62.7522 122.075 59.4051 122.291 56.0528L120.295 55.9245ZM117.928 75.7161C117.353 78.9862 116.689 82.2436 115.934 85.4846L117.882 85.9381C118.645 82.6614 119.317 79.3682 119.898 76.0621L117.928 75.7161ZM113.408 95.1291C112.943 96.7233 112.457 98.3125 111.947 99.8963L113.851 100.508C114.366 98.9072 114.858 97.3005 115.328 95.6887L113.408 95.1291ZM111.947 99.8963L110.598 104.096L112.502 104.708L113.851 100.508L111.947 99.8963ZM107.898 112.495L106.548 116.694L108.452 117.306L109.802 113.107L107.898 112.495ZM106.71 116.388C105.7 117.69 104.676 118.98 103.636 120.257L105.188 121.52C106.237 120.23 107.271 118.928 108.29 117.612L106.71 116.388ZM97.2173 127.771C95.0169 130.226 92.7593 132.626 90.4468 134.97L91.8705 136.375C94.2054 134.008 96.4848 131.584 98.7065 129.106L97.2173 127.771ZM83.3402 141.837C80.917 144.069 78.4408 146.243 75.9138 148.357L77.197 149.891C79.7485 147.757 82.2486 145.562 84.6952 143.308L83.3402 141.837ZM68.1845 154.515C65.5609 156.505 62.8887 158.433 60.17 160.297L61.3011 161.947C64.046 160.064 66.7441 158.118 69.393 156.109L68.1845 154.515ZM51.8885 165.69C50.4878 166.555 49.0761 167.404 47.6536 168.236L48.6636 169.962C50.0999 169.122 51.5253 168.265 52.9395 167.391L51.8885 165.69ZM47.6536 168.236L43.8888 170.439L44.8989 172.165L48.6636 169.962L47.6536 168.236ZM36.3594 174.845L28.8299 179.251L29.84 180.977L37.3694 176.571L36.3594 174.845ZM21.3004 183.656L13.771 188.062L14.781 189.788L22.3105 185.383L21.3004 183.656ZM6.24151 192.468L2.47678 194.671L3.48685 196.397L7.25158 194.194L6.24151 192.468ZM48.1586 169.099L49.1687 170.825L49.1687 170.825L48.1586 169.099ZM1.04698 195.028C0.767315 196.096 1.40686 197.189 2.47544 197.469L19.8889 202.026C20.9575 202.306 22.0505 201.666 22.3301 200.598C22.6098 199.529 21.9703 198.436 20.9017 198.157L5.42303 194.106L9.47407 178.627C9.75374 177.558 9.11419 176.465 8.04561 176.186C6.97704 175.906 5.88407 176.546 5.6044 177.614L1.04698 195.028ZM112.899 100.202L110.995 99.5903L112.899 100.202ZM107.5 117L109.081 118.225L109.296 117.947L109.404 117.612L107.5 117ZM114.596 1.7301C114.985 3.33809 115.352 4.94988 115.696 6.56499L119.608 5.731C119.256 4.08016 118.881 2.43272 118.484 0.789161L114.596 1.7301ZM117.497 16.3152C118.008 19.5847 118.429 22.864 118.76 26.1494L122.74 25.7487C122.402 22.3906 121.971 19.0388 121.449 15.6969L117.497 16.3152ZM119.482 36.0383C119.633 39.3418 119.692 42.6475 119.662 45.9519L123.661 45.9893C123.693 42.6119 123.632 39.2329 123.478 35.8564L119.482 36.0383ZM119.297 55.8603C119.085 59.158 118.783 62.4504 118.39 65.7339L122.362 66.209C122.763 62.8528 123.072 59.4875 123.289 56.1169L119.297 55.8603ZM116.943 75.543C116.371 78.7952 115.711 82.0347 114.96 85.2578L118.856 86.1648C119.623 82.8704 120.299 79.5592 120.882 76.2351L116.943 75.543ZM112.448 94.8493C111.986 96.4348 111.502 98.0152 110.995 99.5903L114.804 100.814C115.321 99.2045 115.816 97.589 116.288 95.9685L112.448 94.8493ZM110.995 99.5903L109.646 103.79L113.454 105.014L114.804 100.814L110.995 99.5903ZM106.946 112.189L105.596 116.388L109.404 117.612L110.754 113.413L106.946 112.189ZM105.919 115.775C104.914 117.072 103.895 118.355 102.861 119.626L105.963 122.151C107.018 120.855 108.057 119.547 109.081 118.225L105.919 115.775ZM96.4727 127.104C94.2829 129.546 92.0363 131.935 89.7349 134.268L92.5824 137.077C94.9285 134.699 97.2188 132.264 99.4511 129.774L96.4727 127.104ZM82.6627 141.102C80.2512 143.323 77.787 145.487 75.2722 147.59L77.8387 150.658C80.4023 148.514 82.9144 146.308 85.3727 144.044L82.6627 141.102ZM67.5802 153.718C64.9693 155.699 62.31 157.617 59.6045 159.472L61.8666 162.771C64.6247 160.88 67.3357 158.924 69.9973 156.906L67.5802 153.718ZM51.363 164.839C49.9691 165.7 48.5642 166.545 47.1485 167.373L49.1687 170.825C50.6118 169.981 52.044 169.12 53.465 168.242L51.363 164.839ZM47.1485 167.373L43.3838 169.576L45.4039 173.028L49.1687 170.825L47.1485 167.373ZM35.8543 173.982L28.3249 178.388L30.345 181.84L37.8745 177.434L35.8543 173.982ZM20.7954 182.793L13.2659 187.199L15.2861 190.651L22.8155 186.246L20.7954 182.793ZM5.73648 191.605L1.97175 193.808L3.99189 197.26L7.75661 195.057L5.73648 191.605Z" fill="black"/>
</svg>
