<svg xmlns="http://www.w3.org/2000/svg" width="268" height="58" viewBox="0 0 268 58" fill="none">
    <path d="M265.391 47.9792L266.066 47.242L266.066 47.242L265.391 47.9792ZM81.7415 15.6507L81.3582 14.7271L81.7415 15.6507ZM2.11803 49.4617C1.60764 49.2507 1.36494 48.6659 1.57592 48.1555L5.01435 39.8382C5.22535 39.3279 5.81015 39.0852 6.32054 39.2961C6.83093 39.5071 7.07363 40.0919 6.86263 40.6023L3.80626 47.9955L11.1994 51.0518C11.7098 51.2629 11.9525 51.8477 11.7415 52.358C11.5305 52.8684 10.9457 53.1111 10.4353 52.9001L2.11803 49.4617ZM184.201 6.17895L183.994 7.15718L184.201 6.17895ZM265.324 49.2748L265.172 49.1352L266.523 47.6608L266.676 47.8004L265.324 49.2748ZM264.867 48.856L264.715 48.7164L266.066 47.242L266.219 47.3816L264.867 48.856ZM264.715 48.7164C263.585 47.6808 262.443 46.6612 261.287 45.6577L262.599 44.1479C263.768 45.1629 264.923 46.1944 266.066 47.242L264.715 48.7164ZM254.194 39.8203C251.776 37.9358 249.311 36.1182 246.801 34.3689L247.944 32.7281C250.483 34.4976 252.977 36.3364 255.424 38.2427L254.194 39.8203ZM239.127 29.319C236.523 27.7036 233.878 26.1584 231.195 24.685L232.157 22.9318C234.872 24.4224 237.548 25.9854 240.181 27.6196L239.127 29.319ZM223.027 20.48C220.269 19.1516 217.475 17.8964 214.648 16.716L215.418 14.8704C218.278 16.0645 221.105 17.3343 223.895 18.6781L223.027 20.48ZM206.079 13.4035C203.197 12.3768 200.285 11.4259 197.347 10.5523L197.916 8.63521C200.889 9.51895 203.835 10.4809 206.75 11.5195L206.079 13.4035ZM188.475 8.17022C186.987 7.81297 185.493 7.47523 183.994 7.15718L184.409 5.20071C185.925 5.52245 187.436 5.8641 188.941 6.2255L188.475 8.17022ZM183.994 7.15718C182.298 6.79753 180.599 6.46384 178.897 6.15608L179.253 4.18801C180.975 4.49934 182.693 4.83689 184.409 5.20071L183.994 7.15718ZM168.627 4.61661C165.185 4.20615 161.735 3.9002 158.283 3.69832L158.4 1.70173C161.892 1.90595 165.381 2.21545 168.864 2.63068L168.627 4.61661ZM147.902 3.40452C144.438 3.41086 140.977 3.52158 137.522 3.73624L137.398 1.7401C140.893 1.52294 144.394 1.41093 147.898 1.40452L147.902 3.40452ZM127.181 4.69219C123.746 5.11441 120.323 5.64013 116.917 6.26893L116.554 4.30215C120 3.66606 123.463 3.13424 126.937 2.70713L127.181 4.69219ZM106.766 8.4608C103.409 9.29205 100.074 10.2252 96.7651 11.2598L96.1682 9.35096C99.5157 8.30432 102.889 7.36035 106.285 6.51945L106.766 8.4608ZM86.9512 14.6559C85.3346 15.2705 83.7257 15.91 82.1248 16.5743L81.3582 14.7271C82.9776 14.055 84.6052 13.4081 86.2405 12.7865L86.9512 14.6559ZM82.1248 16.5743L77.1722 18.6298L76.4056 16.7825L81.3582 14.7271L82.1248 16.5743ZM67.267 22.7406L57.3619 26.8515L56.5952 25.0042L66.5004 20.8934L67.267 22.7406ZM47.4567 30.9623L37.5515 35.0732L36.7849 33.226L46.6901 29.1151L47.4567 30.9623ZM27.6463 39.184L17.7412 43.2949L16.9745 41.4477L26.8797 37.3368L27.6463 39.184ZM7.83597 47.4058L2.88339 49.4612L2.11676 47.614L7.06934 45.5585L7.83597 47.4058ZM265.391 47.9792L266.742 46.5048L266.742 46.5048L265.391 47.9792ZM81.7415 15.6507L80.9748 13.8035L81.7415 15.6507ZM1.73597 50.3859C0.715201 49.9639 0.22979 48.7943 0.651785 47.7735L7.52862 31.1389C7.95062 30.1181 9.12023 29.6327 10.141 30.0547C11.1618 30.4767 11.6472 31.6463 11.2252 32.6671L5.11245 47.4534L19.8987 53.5661C20.9195 53.9881 21.4049 55.1577 20.9829 56.1785C20.5609 57.1993 19.3913 57.6847 18.3706 57.2627L1.73597 50.3859ZM184.201 6.17895L183.786 8.13542L184.201 6.17895ZM264.649 50.012L264.496 49.8724L267.199 46.9236L267.351 47.0632L264.649 50.012ZM264.192 49.5932L264.039 49.4536L266.742 46.5048L266.894 46.6444L264.192 49.5932ZM264.039 49.4536C262.916 48.424 261.78 47.4103 260.632 46.4127L263.255 43.3929C264.43 44.4138 265.593 45.4512 266.742 46.5048L264.039 49.4536ZM253.58 40.609C251.175 38.7355 248.724 36.9284 246.229 35.1893L248.516 31.9077C251.07 33.6874 253.578 35.5366 256.038 37.4539L253.58 40.609ZM238.599 30.1687C236.011 28.5626 233.382 27.0264 230.713 25.5616L232.639 22.0552C235.369 23.5543 238.06 25.1264 240.708 26.7699L238.599 30.1687ZM222.593 21.381C219.851 20.0603 217.073 18.8123 214.262 17.6388L215.803 13.9476C218.68 15.1486 221.523 16.4256 224.329 17.7771L222.593 21.381ZM205.743 14.3455C202.878 13.3248 199.983 12.3794 197.062 11.5108L198.201 7.67667C201.191 8.56548 204.154 9.53294 207.086 10.5775L205.743 14.3455ZM188.241 9.14258C186.762 8.7874 185.277 8.45162 183.786 8.13542L184.616 4.22248C186.142 4.54606 187.661 4.88967 189.175 5.25314L188.241 9.14258ZM183.786 8.13542C182.1 7.77785 180.411 7.4461 178.719 7.14012L179.431 3.20397C181.163 3.51708 182.891 3.85657 184.616 4.22248L183.786 8.13542ZM168.509 5.60958C165.086 5.2015 161.657 4.89732 158.225 4.69661L158.458 0.703438C161.97 0.908828 165.48 1.22011 168.982 1.63771L168.509 5.60958ZM147.904 4.40452C144.46 4.41082 141.019 4.5209 137.584 4.73431L137.336 0.742021C140.851 0.523617 144.372 0.410971 147.897 0.404529L147.904 4.40452ZM127.303 5.68472C123.888 6.10449 120.485 6.62717 117.098 7.25231L116.372 3.31876C119.838 2.67903 123.321 2.14416 126.815 1.7146L127.303 5.68472ZM107.006 9.43148C103.669 10.2579 100.353 11.1856 97.0635 12.2143L95.8698 8.39653C99.2365 7.34389 102.63 6.39449 106.044 5.54877L107.006 9.43148ZM87.3065 15.5907C85.6994 16.2016 84.0997 16.8374 82.5081 17.4979L80.9748 13.8035C82.6035 13.1275 84.2405 12.4769 85.8852 11.8517L87.3065 15.5907ZM82.5081 17.4979L77.5555 19.5534L76.0223 15.8589L80.9748 13.8035L82.5081 17.4979ZM67.6504 23.6642L57.7452 27.7751L56.2119 24.0806L66.1171 19.9698L67.6504 23.6642ZM47.84 31.8859L37.9348 35.9968L36.4015 32.3023L46.3067 28.1915L47.84 31.8859ZM28.0297 40.1077L18.1245 44.2185L16.5912 40.5241L26.4964 36.4132L28.0297 40.1077ZM8.2193 48.3294L3.26671 50.3848L1.73343 46.6903L6.68602 44.6349L8.2193 48.3294Z" fill="black"/>
</svg>
