<svg xmlns="http://www.w3.org/2000/svg" width="234" height="65" viewBox="0 0 234 65" fill="none">
    <path d="M49.8924 35.3009L49.3875 36.1641L49.8924 35.3009ZM1.74667 6.31678C1.2124 6.45667 0.892683 7.00319 1.03259 7.53746L3.31225 16.244C3.45214 16.7782 3.99866 17.0979 4.53293 16.9581C5.06721 16.8182 5.38692 16.2716 5.24702 15.7374L3.22065 7.99826L10.9598 5.97189C11.494 5.832 11.8138 5.28548 11.6739 4.75121C11.534 4.21693 10.9874 3.89722 10.4532 4.03711L1.74667 6.31678ZM143.576 58.2861L143.36 57.3096L143.576 58.2861ZM126.402 62.0819L126.259 63.0715L126.44 63.0978L126.618 63.0583L126.402 62.0819ZM231.187 8.82422C229.994 10.0313 228.786 11.22 227.561 12.39L228.943 13.8361C230.181 12.6528 231.404 11.4507 232.61 10.2301L231.187 8.82422ZM220.01 19.2015C217.425 21.402 214.78 23.5251 212.08 25.5687L213.287 27.1635C216.018 25.0968 218.692 22.9498 221.306 20.7244L220.01 19.2015ZM203.798 31.4708C200.98 33.3593 198.11 35.1658 195.191 36.8883L196.208 38.6107C199.16 36.8689 202.062 35.042 204.912 33.1322L203.798 31.4708ZM186.288 41.8032C183.275 43.3555 180.217 44.8216 177.118 46.1996L177.931 48.0272C181.065 46.6336 184.157 45.1509 187.204 43.5812L186.288 41.8032ZM167.711 50.063C164.542 51.259 161.337 52.3655 158.097 53.3803L158.695 55.2889C161.971 54.2626 165.213 53.1436 168.417 51.9341L167.711 50.063ZM148.31 56.1409C146.667 56.5537 145.017 56.9434 143.36 57.3096L143.792 59.2625C145.467 58.8921 147.136 58.498 148.797 58.0806L148.31 56.1409ZM143.36 57.3096L139.067 58.2586L139.498 60.2114L143.792 59.2625L143.36 57.3096ZM130.48 60.1565L126.187 61.1054L126.618 63.0583L130.912 62.1093L130.48 60.1565ZM126.546 61.0922C124.871 60.8492 123.201 60.5862 121.534 60.3033L121.199 62.2751C122.882 62.5607 124.568 62.8262 126.259 63.0715L126.546 61.0922ZM111.574 58.3647C108.269 57.6382 104.983 56.8326 101.72 55.9489L101.197 57.8793C104.491 58.7714 107.808 59.5847 111.145 60.318L111.574 58.3647ZM91.9928 53.0615C88.7741 52.0212 85.5809 50.9034 82.416 49.7094L81.71 51.5806C84.9049 52.786 88.1284 53.9144 91.3777 54.9646L91.9928 53.0615ZM73.0117 45.9001C69.9097 44.5559 66.8388 43.1364 63.8017 41.6426L62.919 43.4373C65.9849 44.9452 69.085 46.3782 72.2164 47.7352L73.0117 45.9001ZM54.8072 36.9467C53.3281 36.1286 51.858 35.2922 50.3974 34.4378L49.3875 36.1641C50.862 37.0266 52.346 37.8709 53.8392 38.6969L54.8072 36.9467ZM50.3974 34.4378L46.4063 32.103L45.3964 33.8294L49.3875 36.1641L50.3974 34.4378ZM38.4242 27.4336L30.4422 22.7641L29.4323 24.4904L37.4144 29.1599L38.4242 27.4336ZM22.4601 18.0947L14.478 13.4252L13.4681 15.1515L21.4502 19.821L22.4601 18.0947ZM6.49595 8.75575L2.5049 6.42102L1.49504 8.14732L5.48607 10.4821L6.49595 8.75575ZM49.8924 35.3009L48.8825 37.0272L48.8825 37.0272L49.8924 35.3009ZM1.49338 5.34939C0.424826 5.62918 -0.214589 6.72221 0.0651888 7.79077L4.62453 25.2038C4.90431 26.2723 5.99734 26.9117 7.06589 26.6319C8.13445 26.3522 8.77386 25.2591 8.49408 24.1906L4.44133 8.71236L19.9196 4.65961C20.9881 4.37983 21.6275 3.28679 21.3477 2.21824C21.068 1.1497 19.9749 0.510274 18.9064 0.790059L1.49338 5.34939ZM143.576 58.2861L143.144 56.3332L143.576 58.2861ZM126.402 62.0819L126.115 64.0611L126.477 64.1136L126.834 64.0347L126.402 62.0819ZM230.476 8.1213C229.29 9.32157 228.088 10.5035 226.87 11.667L229.633 14.5591C230.879 13.3693 232.108 12.1605 233.321 10.933L230.476 8.1213ZM219.361 18.4401C216.791 20.6281 214.162 22.7392 211.477 24.7713L213.89 27.9608C216.636 25.8826 219.326 23.7236 221.954 21.4859L219.361 18.4401ZM203.241 30.6402C200.44 32.518 197.586 34.3143 194.683 36.027L196.716 39.472C199.684 37.7204 202.603 35.8833 205.468 33.9629L203.241 30.6402ZM185.83 40.9143C182.834 42.4578 179.794 43.9156 176.712 45.2859L178.337 48.9409C181.489 47.5396 184.598 46.0486 187.662 44.4701L185.83 40.9143ZM167.357 49.1274C164.207 50.3167 161.02 51.4169 157.798 52.426L158.994 56.2431C162.289 55.2111 165.548 54.0859 168.77 52.8696L167.357 49.1274ZM148.066 55.171C146.433 55.5815 144.792 55.969 143.144 56.3332L144.007 60.2389C145.692 59.8665 147.37 59.4702 149.041 59.0504L148.066 55.171ZM143.144 56.3332L138.851 57.2821L139.714 61.1879L144.007 60.2389L143.144 56.3332ZM130.264 59.18L125.971 60.129L126.834 64.0347L131.127 63.0858L130.264 59.18ZM126.69 60.1026C125.023 59.8608 123.36 59.599 121.701 59.3174L121.032 63.261C122.722 63.5479 124.417 63.8147 126.115 64.0611L126.69 60.1026ZM111.789 57.388C108.499 56.6649 105.229 55.8632 101.981 54.9836L100.936 58.8446C104.245 59.7409 107.578 60.5579 110.931 61.2947L111.789 57.388ZM92.3003 52.11C89.0969 51.0746 85.9189 49.9622 82.769 48.7737L81.357 52.5162C84.5669 53.7273 87.8056 54.8609 91.0701 55.9161L92.3003 52.11ZM73.4093 44.9826C70.3221 43.6447 67.2657 42.2319 64.243 40.7453L62.4777 44.3347C65.558 45.8497 68.6727 47.2894 71.8188 48.6528L73.4093 44.9826ZM55.2912 36.0717C53.8191 35.2574 52.356 34.425 50.9023 33.5746L48.8825 37.0272C50.364 37.8939 51.8549 38.7421 53.3551 39.5719L55.2912 36.0717ZM50.9023 33.5746L46.9113 31.2399L44.8915 34.6925L48.8825 37.0272L50.9023 33.5746ZM38.9292 26.5704L30.9471 21.901L28.9273 25.3536L36.9094 30.023L38.9292 26.5704ZM22.965 17.2315L14.983 12.562L12.9632 16.0147L20.9453 20.6841L22.965 17.2315ZM7.00089 7.89259L3.00985 5.55786L0.990089 9.01048L4.98113 11.3452L7.00089 7.89259Z" fill="black"/>
</svg>
