<svg width="20" height="20" viewBox="0 0 20 20" fill="none" xmlns="http://www.w3.org/2000/svg">
<g clip-path="url(#clip0_72_56)">
<rect width="20" height="20" fill="#1D1D1D"/>
<path d="M17.0711 2.92895C15.1823 1.04016 12.6711 0 10 0C7.32895 0 4.8177 1.04016 2.92895 2.92895C1.04016 4.8177 0 7.32895 0 10C0 12.6711 1.04016 15.1823 2.92895 17.0711C4.8177 18.9598 7.32895 20 10 20C12.6711 20 15.1823 18.9598 17.0711 17.0711C18.9598 15.1823 20 12.6711 20 10C20 7.32895 18.9598 4.8177 17.0711 2.92895ZM10 19.3684C4.83422 19.3684 0.631562 15.1658 0.631562 10C0.631562 4.83422 4.83422 0.631562 10 0.631562C15.1658 0.631562 19.3684 4.83422 19.3684 10C19.3684 15.1658 15.1658 19.3684 10 19.3684Z" fill="white"/>
<path d="M15.6636 3.85308C15.5667 3.78003 15.4364 3.76909 15.3286 3.82487L3.11805 10.1407C3.0125 10.1952 2.94652 10.3045 2.9473 10.4233C2.94808 10.5421 3.01555 10.6505 3.12187 10.7036L6.31578 12.3005V15.4648C6.31578 15.5476 6.34394 15.6296 6.40094 15.6897C6.46398 15.7562 6.54777 15.7896 6.6316 15.7896C6.68441 15.7896 6.73723 15.7764 6.785 15.7498L10.4391 13.7198L13.2358 14.9183C13.2953 14.9439 13.3612 14.9544 13.4248 14.9425C13.5559 14.918 13.6533 14.8176 13.6782 14.6936L14.3858 11.1555C14.4248 10.96 14.2754 10.7777 14.0761 10.7777C13.9255 10.7776 13.796 10.8839 13.7664 11.0315L13.1351 14.188L10.5455 13.0782C10.4557 13.0397 10.3532 13.045 10.2677 13.0924L6.94738 14.937V12.1053C6.94738 11.9857 6.8798 11.8764 6.77281 11.8228L3.95973 10.4163L15.0351 4.68765L14.074 9.49323C14.0349 9.68866 14.1844 9.87097 14.3837 9.87097C14.5342 9.87097 14.6638 9.76468 14.6934 9.6171L15.7833 4.16722C15.8071 4.04823 15.7606 3.92608 15.6636 3.85308Z" fill="white"/>
<path d="M13.6162 6.43598C13.517 6.31036 13.3393 6.27879 13.2029 6.36282L7.72925 9.73125C7.63585 9.78872 7.57898 9.89055 7.57898 10.0002V13.3686C7.57894 13.5151 7.67964 13.6423 7.82214 13.676C7.8464 13.6817 7.87074 13.6845 7.8948 13.6845C8.01226 13.6845 8.12281 13.6186 8.17714 13.5099L9.41738 11.0294L13.5917 6.85508C13.705 6.7418 13.7155 6.56168 13.6162 6.43598ZM8.93457 10.619C8.91062 10.643 8.89062 10.6707 8.87546 10.7011L8.21054 12.0309V10.1766L11.2432 8.31036L8.93457 10.619Z" fill="white"/>
</g>
<defs>
<clipPath id="clip0_72_56">
<rect width="20" height="20" fill="white"/>
</clipPath>
</defs>
</svg>
