<svg width="20" height="20" viewBox="0 0 20 20" fill="none" xmlns="http://www.w3.org/2000/svg">
<g clip-path="url(#clip0_72_66)">
<rect width="20" height="20" fill="#1D1D1D"/>
<path d="M11.9045 0H8.09505C4.10503 0 0.858856 3.24542 0.858856 7.23467V10.6663C0.858856 13.6371 2.68438 16.3071 5.42933 17.3944V19.6191C5.42933 19.77 5.51807 19.9063 5.65595 19.9672C5.70546 19.9893 5.75802 20 5.8102 20C5.90275 20 5.99454 19.9661 6.06576 19.9014L8.27445 17.901H11.9045C15.8946 17.901 19.1407 14.6556 19.1407 10.6663V7.23467C19.1407 3.24542 15.8946 0 11.9045 0ZM18.379 10.6663C18.379 14.2355 15.4748 17.1393 11.9045 17.1393H8.12743C8.03297 17.1393 7.94194 17.1743 7.87186 17.2379L6.19107 18.7603V17.1305C6.19107 16.969 6.08938 16.825 5.93703 16.7717C3.35548 15.8588 1.6206 13.4052 1.6206 10.6663V7.23467C1.6206 3.66552 4.52514 0.761745 8.09505 0.761745H11.9045C15.4748 0.761745 18.379 3.66552 18.379 7.23467V10.6663Z" fill="white"/>
<path d="M15.0334 11.6142L12.6926 10.0937C12.4366 9.9273 12.1319 9.87093 11.8337 9.93263C11.5351 9.99547 11.2784 10.1718 11.112 10.4289L11.0019 10.598C9.98877 10.2632 8.87167 9.83551 8.20286 7.89953L8.47975 7.65882C8.95508 7.24557 9.00497 6.52268 8.59173 6.04659L6.76049 3.93998C6.62262 3.78116 6.3819 3.76478 6.22308 3.90227L5.07323 4.90168C4.06468 5.77845 4.53581 7.07532 4.69083 7.50152C4.69769 7.52056 4.70607 7.53884 4.71597 7.55675C4.75596 7.62835 5.71081 9.33237 7.25296 10.9031C8.80121 12.4803 11.5964 13.9367 11.6821 13.979C12.0013 14.1862 12.3605 14.2856 12.7158 14.2856C13.3397 14.2856 13.9514 13.9798 14.3162 13.4191L15.1458 12.1417C15.26 11.9646 15.2098 11.7288 15.0334 11.6142ZM13.6771 13.004C13.334 13.5326 12.6248 13.6827 12.0649 13.3216C12.0371 13.3072 9.26016 11.861 7.79647 10.3699C6.42837 8.97626 5.51999 7.42801 5.39621 7.21206C5.09456 6.36614 5.14788 5.84625 5.57293 5.4768L6.43561 4.72724L8.01699 6.54629C8.15753 6.70778 8.14115 6.94392 7.98043 7.0837L7.5131 7.48971C7.39922 7.58874 7.35427 7.74528 7.39883 7.88925C8.19562 10.4784 9.74501 10.9869 10.8762 11.3582L11.0411 11.4127C11.206 11.4683 11.3866 11.4047 11.481 11.2592L11.7511 10.8433C11.8067 10.7572 11.892 10.6989 11.991 10.678C12.0904 10.6567 12.1917 10.6765 12.2778 10.7325L14.2995 12.0453L13.6771 13.004Z" fill="white"/>
<path d="M10.8693 6.18826C10.6667 6.12998 10.4561 6.24767 10.3986 6.4503C10.341 6.65254 10.4584 6.86316 10.6606 6.92067C11.2281 7.08216 11.6802 7.53502 11.8402 8.1029C11.8874 8.27049 12.0401 8.38056 12.2066 8.38056C12.2408 8.38056 12.2755 8.37599 12.3102 8.36647C12.5124 8.30933 12.6305 8.09909 12.5733 7.89647C12.3422 7.07607 11.689 6.42135 10.8693 6.18826Z" fill="white"/>
<path d="M13.7678 8.46245C13.802 8.46245 13.8367 8.45788 13.8714 8.44836C14.074 8.39123 14.1917 8.1806 14.1345 7.97836C13.6851 6.38517 12.4172 5.11458 10.8251 4.66134C10.6229 4.60307 10.4123 4.72152 10.3548 4.92376C10.2973 5.12601 10.4146 5.33663 10.6168 5.39414C11.9563 5.77501 13.0232 6.84488 13.4014 8.18517C13.449 8.35276 13.6013 8.46245 13.7678 8.46245Z" fill="white"/>
<path d="M10.661 2.88796C10.4584 2.82969 10.2478 2.94738 10.1902 3.15038C10.1327 3.35263 10.25 3.56325 10.4523 3.62076C12.7219 4.26634 14.5299 6.07853 15.1705 8.34967C15.2178 8.51726 15.3705 8.62733 15.5369 8.62733C15.5712 8.62733 15.6059 8.62276 15.6405 8.61324C15.8428 8.55611 15.9608 8.34548 15.9037 8.14324C15.1919 5.6192 13.1831 3.60591 10.661 2.88796Z" fill="white"/>
</g>
<defs>
<clipPath id="clip0_72_66">
<rect width="20" height="20" fill="white"/>
</clipPath>
</defs>
</svg>
