<svg width="20" height="20" viewBox="0 0 20 20" fill="none" xmlns="http://www.w3.org/2000/svg">
<g clip-path="url(#clip0_72_74)">
<rect width="20" height="20" fill="#1D1D1D"/>
<path d="M10.1665 0C4.74413 0 0.333127 4.411 0.333127 9.83333C0.333127 11.5487 0.781793 13.234 1.63179 14.7167L0.0167932 19.5613C-0.0218734 19.6777 0.00612656 19.8053 0.0897932 19.8947C0.153793 19.963 0.24246 20 0.333127 20C0.36146 20 0.389793 19.9963 0.417793 19.989L5.70679 18.5973C7.08079 19.2973 8.61979 19.6667 10.1665 19.6667C15.5888 19.6667 19.9998 15.2557 19.9998 9.83333C19.9998 4.411 15.5888 0 10.1665 0ZM10.1665 19C9.01046 19 7.86013 18.776 6.78913 18.3517L8.40546 17.992C8.58513 17.952 8.69846 17.774 8.65846 17.5943C8.61846 17.4143 8.44079 17.3023 8.26079 17.341L5.67413 17.9167C5.67179 17.9173 5.67013 17.919 5.66779 17.9193C5.66579 17.92 5.66379 17.9193 5.66179 17.9197L0.844126 19.1877L2.31179 14.7847C2.34246 14.693 2.33146 14.5923 2.28213 14.509C1.44313 13.097 0.999793 11.4803 0.999793 9.83333C0.999793 4.779 5.11179 0.666667 10.1665 0.666667C15.2211 0.666667 19.3331 4.779 19.3331 9.83333C19.3331 14.8877 15.2211 19 10.1665 19Z" fill="white"/>
<path d="M16.5223 12.8391C16.053 11.9521 14.514 11.0325 14.3367 10.9285C14.0177 10.7471 13.6847 10.6901 13.399 10.7695C13.1807 10.8301 13.0027 10.9668 12.8817 11.1655C12.6563 11.4348 12.376 11.7508 12.309 11.8028C11.8043 12.1441 11.4207 12.1061 10.9843 11.6701L8.33032 9.01615C7.89399 8.57948 7.85532 8.19581 8.19399 7.69615C8.24966 7.62448 8.56532 7.34381 8.83466 7.11881C9.03366 6.99815 9.17032 6.82015 9.23066 6.60148C9.30999 6.31581 9.25332 5.98248 9.06966 5.66015C8.96766 5.48648 8.04832 3.94715 7.16099 3.47781C6.67599 3.22081 6.08932 3.30948 5.70199 3.69748L5.11566 4.28381C4.16166 5.23748 3.81666 6.32048 4.08999 7.50281C4.31499 8.47648 4.96799 9.50915 6.03099 10.5715L9.42866 13.9691C10.4913 15.0318 11.524 15.6848 12.4977 15.9101C12.7593 15.9708 13.0163 16.0008 13.268 16.0008C14.153 16.0008 14.974 15.6271 15.7167 14.8841L16.3027 14.2978C16.691 13.9105 16.779 13.3241 16.5223 12.8391ZM15.8313 13.8268L15.2453 14.4131C14.454 15.2048 13.6047 15.4815 12.648 15.2608C11.7977 15.0641 10.8733 14.4708 9.89999 13.4978L6.50232 10.1001C5.52932 9.12715 4.93599 8.20281 4.73932 7.35248C4.51799 6.39615 4.79532 5.54648 5.58666 4.75515L6.17299 4.16881C6.28399 4.05748 6.43032 3.99948 6.57899 3.99948C6.67066 3.99948 6.76299 4.02148 6.84899 4.06681C7.45899 4.38981 8.24366 5.56981 8.49232 5.99348C8.58166 6.15015 8.61799 6.31448 8.58799 6.42315C8.57232 6.48015 8.53866 6.52048 8.47866 6.55415L8.42832 6.58881C8.17932 6.79615 7.74666 7.16681 7.64499 7.31715C7.55366 7.45215 7.48699 7.58515 7.43166 7.71748C7.32299 7.45548 7.23866 7.16615 7.20632 6.85215C7.18732 6.66915 7.02299 6.54081 6.84032 6.55481C6.65732 6.57415 6.52399 6.73781 6.54299 6.92115C6.71399 8.56881 7.99432 9.64081 8.04899 9.68548C8.05432 9.68981 8.06066 9.69115 8.06599 9.69515L10.5127 12.1415C10.522 12.1508 10.5317 12.1575 10.5413 12.1665C10.5513 12.1798 10.5567 12.1951 10.5687 12.2071C10.6133 12.2515 11.6817 13.2875 13.31 13.4568C13.3217 13.4578 13.3333 13.4585 13.3447 13.4585C13.5133 13.4585 13.658 13.3308 13.676 13.1598C13.695 12.9765 13.562 12.8128 13.3787 12.7935C13.001 12.7545 12.6577 12.6578 12.3557 12.5391C12.4637 12.4888 12.5723 12.4295 12.682 12.3551C12.8327 12.2535 13.203 11.8205 13.4107 11.5715L13.4453 11.5215C13.479 11.4615 13.5193 11.4278 13.5767 11.4121C13.6847 11.3808 13.8497 11.4188 14.0027 11.5055C14.43 11.7561 15.6093 12.5398 15.933 13.1511C16.052 13.3755 16.0113 13.6471 15.8313 13.8268Z" fill="white"/>
</g>
<defs>
<clipPath id="clip0_72_74">
<rect width="20" height="20" fill="white"/>
</clipPath>
</defs>
</svg>
