<svg width="18" height="17" viewBox="0 0 18 17" fill="none" xmlns="http://www.w3.org/2000/svg">
<g id="shopping-bag 1 1">
<path id="Vector" d="M16.4404 16.2899L15.3451 4.76965C15.3152 4.45504 15.036 4.21406 14.7016 4.21406H12.4428V3.25193C12.4428 1.45882 10.8983 0 8.99978 0C7.1014 0 5.55701 1.45882 5.55701 3.25193V4.21406H3.29671C2.9623 4.21406 2.68312 4.45504 2.65322 4.76965L1.55361 16.3353C1.53741 16.5059 1.59788 16.6751 1.7203 16.8015C1.8427 16.9279 2.01577 16.9999 2.1971 16.9999H15.8013C15.8018 16.9999 15.8025 16.9999 15.803 16.9999C16.1599 16.9999 16.4491 16.7267 16.4491 16.3897C16.449 16.3558 16.4461 16.3224 16.4404 16.2899ZM6.84915 3.25193C6.84915 2.13172 7.81394 1.22036 8.9999 1.22036C10.1859 1.22036 11.1508 2.13172 11.1508 3.25193V4.21406H6.84915V3.25193ZM2.90381 15.7797L3.88739 5.43442H5.55701V6.52555C5.55701 6.86259 5.8462 7.13575 6.20306 7.13575C6.55998 7.13575 6.84915 6.86259 6.84915 6.52555V5.43442H11.1508V6.52555C11.1508 6.86259 11.4399 7.13575 11.7969 7.13575C12.1538 7.13575 12.443 6.86259 12.443 6.52555V5.43442H14.111L15.0946 15.7797H2.90381Z" fill="white"/>
</g>
</svg>
