<svg width="22" height="22" viewBox="0 0 22 22" fill="none" xmlns="http://www.w3.org/2000/svg">
<path d="M16.4719 0H5.52812C4.96682 0 4.51312 0.454466 4.51312 1.01499V20.9846C4.51312 21.5455 4.96723 22 5.52812 22H16.4718C17.0323 22 17.4868 21.5455 17.4868 20.9846V1.01499C17.4872 0.454104 17.0324 0 16.4719 0ZM9.87856 1.19787H12.1206C12.2378 1.19787 12.3323 1.29241 12.3323 1.40956C12.3323 1.52671 12.2378 1.62124 12.1206 1.62124H9.87856C9.76218 1.62124 9.66688 1.52671 9.66688 1.40956C9.66688 1.29241 9.76218 1.19787 9.87856 1.19787ZM12.3539 20.1944H9.64575C9.4237 20.1944 9.24351 20.0145 9.24351 19.7925C9.24351 19.5705 9.4237 19.3906 9.64575 19.3906H12.3538C12.5758 19.3906 12.7553 19.5705 12.7553 19.7925C12.7553 20.0146 12.5763 20.1944 12.3539 20.1944ZM16.2183 17.8255H5.78171V3.44071H16.2183V17.8255Z" fill="white"/>
</svg>
